<svg width="285" height="51" viewBox="0 0 285 51" fill="none" xmlns="http://www.w3.org/2000/svg">
<g filter="url(#filter0_d_2325_2371)">
<path d="M15.7288 5.8L10.8808 17H8.32081L3.48881 5.8H6.28881L9.69681 13.8L13.1528 5.8H15.7288ZM19.9433 17.128C19.0366 17.128 18.2206 16.9413 17.4953 16.568C16.7806 16.184 16.2206 15.656 15.8153 14.984C15.41 14.312 15.2073 13.5493 15.2073 12.696C15.2073 11.8427 15.41 11.08 15.8153 10.408C16.2206 9.736 16.7806 9.21333 17.4953 8.84C18.2206 8.456 19.0366 8.264 19.9433 8.264C20.85 8.264 21.6606 8.456 22.3753 8.84C23.09 9.21333 23.65 9.736 24.0553 10.408C24.4606 11.08 24.6633 11.8427 24.6633 12.696C24.6633 13.5493 24.4606 14.312 24.0553 14.984C23.65 15.656 23.09 16.184 22.3753 16.568C21.6606 16.9413 20.85 17.128 19.9433 17.128ZM19.9433 15.08C20.5833 15.08 21.106 14.8667 21.5113 14.44C21.9273 14.0027 22.1353 13.4213 22.1353 12.696C22.1353 11.9707 21.9273 11.3947 21.5113 10.968C21.106 10.5307 20.5833 10.312 19.9433 10.312C19.3033 10.312 18.7753 10.5307 18.3593 10.968C17.9433 11.3947 17.7353 11.9707 17.7353 12.696C17.7353 13.4213 17.9433 14.0027 18.3593 14.44C18.7753 14.8667 19.3033 15.08 19.9433 15.08ZM21.3033 7.288L19.9113 6.072L18.5193 7.288H16.6953L18.8073 4.984H21.0153L23.1273 7.288H21.3033ZM39.4069 8.392L35.7749 17H33.1989L29.5829 8.392H32.1589L34.5429 14.248L37.0069 8.392H39.4069ZM43.6162 8.264C44.9495 8.264 45.9735 8.584 46.6882 9.224C47.4029 9.85333 47.7602 10.808 47.7602 12.088V17H45.4242V15.928C44.9549 16.728 44.0802 17.128 42.8002 17.128C42.1389 17.128 41.5629 17.016 41.0722 16.792C40.5922 16.568 40.2242 16.2587 39.9682 15.864C39.7122 15.4693 39.5842 15.0213 39.5842 14.52C39.5842 13.72 39.8829 13.0907 40.4802 12.632C41.0882 12.1733 42.0215 11.944 43.2802 11.944H45.2642C45.2642 11.4 45.0989 10.984 44.7682 10.696C44.4375 10.3973 43.9415 10.248 43.2802 10.248C42.8215 10.248 42.3682 10.3227 41.9202 10.472C41.4829 10.6107 41.1095 10.8027 40.8002 11.048L39.9042 9.304C40.3735 8.97333 40.9335 8.71733 41.5842 8.536C42.2455 8.35467 42.9229 8.264 43.6162 8.264ZM43.4242 15.448C43.8509 15.448 44.2295 15.352 44.5602 15.16C44.8909 14.9573 45.1255 14.664 45.2642 14.28V13.4H43.5522C42.5282 13.4 42.0162 13.736 42.0162 14.408C42.0162 14.728 42.1389 14.984 42.3842 15.176C42.6402 15.3573 42.9869 15.448 43.4242 15.448ZM40.4802 4.984H43.1682L45.3282 7.288H43.3762L40.4802 4.984ZM55.2512 8.264C56.3179 8.264 57.1765 8.584 57.8272 9.224C58.4885 9.864 58.8192 10.8133 58.8192 12.072V17H56.3232V12.456C56.3232 11.7733 56.1739 11.2667 55.8752 10.936C55.5765 10.5947 55.1445 10.424 54.5792 10.424C53.9499 10.424 53.4485 10.6213 53.0752 11.016C52.7019 11.4 52.5152 11.976 52.5152 12.744V17H50.0192V8.392H52.4032V9.4C52.7339 9.03733 53.1445 8.76 53.6352 8.568C54.1259 8.36533 54.6645 8.264 55.2512 8.264ZM74.4929 8.392V15.56C74.4929 17.1387 74.0823 18.312 73.2609 19.08C72.4396 19.848 71.2396 20.232 69.6609 20.232C68.8289 20.232 68.0396 20.1307 67.2929 19.928C66.5463 19.7253 65.9276 19.432 65.4369 19.048L66.4289 17.256C66.7916 17.5547 67.2503 17.7893 67.8049 17.96C68.3596 18.1413 68.9143 18.232 69.4689 18.232C70.3329 18.232 70.9676 18.0347 71.3729 17.64C71.7889 17.256 71.9969 16.6693 71.9969 15.88V15.512C71.3463 16.2267 70.4396 16.584 69.2769 16.584C68.4876 16.584 67.7623 16.4133 67.1009 16.072C66.4503 15.72 65.9329 15.2293 65.5489 14.6C65.1649 13.9707 64.9729 13.2453 64.9729 12.424C64.9729 11.6027 65.1649 10.8773 65.5489 10.248C65.9329 9.61867 66.4503 9.13333 67.1009 8.792C67.7623 8.44 68.4876 8.264 69.2769 8.264C70.5249 8.264 71.4743 8.67467 72.1249 9.496V8.392H74.4929ZM69.7729 14.536C70.4343 14.536 70.9729 14.344 71.3889 13.96C71.8156 13.5653 72.0289 13.0533 72.0289 12.424C72.0289 11.7947 71.8156 11.288 71.3889 10.904C70.9729 10.5093 70.4343 10.312 69.7729 10.312C69.1116 10.312 68.5676 10.5093 68.1409 10.904C67.7143 11.288 67.5009 11.7947 67.5009 12.424C67.5009 13.0533 67.7143 13.5653 68.1409 13.96C68.5676 14.344 69.1116 14.536 69.7729 14.536ZM76.8161 8.392H79.3121V17H76.8161V8.392ZM78.0641 7.192C77.6054 7.192 77.2321 7.05867 76.9441 6.792C76.6561 6.52533 76.5121 6.19467 76.5121 5.8C76.5121 5.40533 76.6561 5.07467 76.9441 4.808C77.2321 4.54133 77.6054 4.408 78.0641 4.408C78.5227 4.408 78.8961 4.536 79.1841 4.792C79.4721 5.048 79.6161 5.368 79.6161 5.752C79.6161 6.168 79.4721 6.51467 79.1841 6.792C78.8961 7.05867 78.5227 7.192 78.0641 7.192ZM85.1006 8.264C86.4339 8.264 87.4579 8.584 88.1726 9.224C88.8872 9.85333 89.2446 10.808 89.2446 12.088V17H86.9086V15.928C86.4392 16.728 85.5646 17.128 84.2846 17.128C83.6232 17.128 83.0472 17.016 82.5566 16.792C82.0766 16.568 81.7086 16.2587 81.4526 15.864C81.1966 15.4693 81.0686 15.0213 81.0686 14.52C81.0686 13.72 81.3672 13.0907 81.9646 12.632C82.5726 12.1733 83.5059 11.944 84.7646 11.944H86.7486C86.7486 11.4 86.5832 10.984 86.2526 10.696C85.9219 10.3973 85.4259 10.248 84.7646 10.248C84.3059 10.248 83.8526 10.3227 83.4046 10.472C82.9672 10.6107 82.5939 10.8027 82.2846 11.048L81.3886 9.304C81.8579 8.97333 82.4179 8.71733 83.0686 8.536C83.7299 8.35467 84.4072 8.264 85.1006 8.264ZM84.9086 15.448C85.3352 15.448 85.7139 15.352 86.0446 15.16C86.3752 14.9573 86.6099 14.664 86.7486 14.28V13.4H85.0366C84.0126 13.4 83.5006 13.736 83.5006 14.408C83.5006 14.728 83.6232 14.984 83.8686 15.176C84.1246 15.3573 84.4712 15.448 84.9086 15.448ZM85.0526 6.616C85.3512 6.47733 85.5592 6.328 85.6766 6.168C85.8046 6.008 85.8686 5.832 85.8686 5.64C85.8686 5.43733 85.7992 5.27733 85.6606 5.16C85.5219 5.032 85.3406 4.968 85.1166 4.968C84.7966 4.968 84.4819 5.06933 84.1726 5.272L83.6606 4.264C84.1192 3.90133 84.6952 3.72 85.3886 3.72C85.9539 3.72 86.4126 3.88 86.7646 4.2C87.1272 4.50933 87.3086 4.92 87.3086 5.432C87.3086 6.328 86.8179 7 85.8366 7.448L85.0526 6.616ZM91.5036 8.392H93.9996V17H91.5036V8.392ZM92.7516 7.192C92.2929 7.192 91.9196 7.05867 91.6316 6.792C91.3436 6.52533 91.1996 6.19467 91.1996 5.8C91.1996 5.40533 91.3436 5.07467 91.6316 4.808C91.9196 4.54133 92.2929 4.408 92.7516 4.408C93.2102 4.408 93.5836 4.536 93.8716 4.792C94.1596 5.048 94.3036 5.368 94.3036 5.752C94.3036 6.168 94.1596 6.51467 93.8716 6.792C93.5836 7.05867 93.2102 7.192 92.7516 7.192ZM106.399 16.584C106.154 16.7653 105.85 16.904 105.487 17C105.135 17.0853 104.762 17.128 104.367 17.128C103.343 17.128 102.549 16.8667 101.983 16.344C101.429 15.8213 101.151 15.0533 101.151 14.04V10.504H99.8233V8.584H101.151V6.488H103.647V8.584H105.791V10.504H103.647V14.008C103.647 14.3707 103.738 14.6533 103.919 14.856C104.111 15.048 104.378 15.144 104.719 15.144C105.114 15.144 105.45 15.0373 105.727 14.824L106.399 16.584ZM113.032 8.264C114.099 8.264 114.958 8.584 115.608 9.224C116.27 9.864 116.6 10.8133 116.6 12.072V17H114.104V12.456C114.104 11.7733 113.955 11.2667 113.656 10.936C113.358 10.5947 112.926 10.424 112.36 10.424C111.731 10.424 111.23 10.6213 110.856 11.016C110.483 11.4 110.296 11.976 110.296 12.744V17H107.8V5.128H110.296V9.288C110.627 8.95733 111.027 8.70667 111.496 8.536C111.966 8.35467 112.478 8.264 113.032 8.264ZM127.535 8.392V17H125.167V15.976C124.836 16.3493 124.442 16.6373 123.983 16.84C123.524 17.032 123.028 17.128 122.495 17.128C121.364 17.128 120.468 16.8027 119.807 16.152C119.146 15.5013 118.815 14.536 118.815 13.256V8.392H121.311V12.888C121.311 14.2747 121.892 14.968 123.055 14.968C123.652 14.968 124.132 14.776 124.495 14.392C124.858 13.9973 125.039 13.416 125.039 12.648V8.392H127.535ZM125.935 8.392H126.367C126.655 8.392 126.884 8.30133 127.055 8.12C127.236 7.928 127.327 7.68267 127.327 7.384C127.327 7.01067 127.22 6.69067 127.007 6.424L128.479 5.88C128.82 6.328 128.991 6.86133 128.991 7.48C128.991 8.28 128.751 8.90933 128.271 9.368C127.802 9.82667 127.146 10.056 126.303 10.056H125.935V8.392ZM137.257 9.528C137.684 9.92267 138.009 10.392 138.233 10.936C138.468 11.4693 138.585 12.056 138.585 12.696C138.585 13.5493 138.383 14.312 137.977 14.984C137.572 15.656 137.012 16.184 136.297 16.568C135.583 16.9413 134.772 17.128 133.865 17.128C132.959 17.128 132.143 16.9413 131.417 16.568C130.703 16.184 130.143 15.656 129.737 14.984C129.332 14.312 129.129 13.5493 129.129 12.696C129.129 11.8427 129.332 11.08 129.737 10.408C130.153 9.736 130.719 9.21333 131.433 8.84C132.159 8.456 132.975 8.264 133.881 8.264C134.095 8.264 134.468 8.29067 135.001 8.344C135.364 8.38667 135.625 8.408 135.785 8.408C136.116 8.408 136.367 8.312 136.537 8.12C136.719 7.928 136.809 7.67733 136.809 7.368C136.809 7.02667 136.697 6.70667 136.473 6.408L137.929 5.864C138.292 6.35467 138.473 6.888 138.473 7.464C138.473 7.92267 138.367 8.33333 138.153 8.696C137.94 9.048 137.641 9.32533 137.257 9.528ZM133.865 15.08C134.495 15.08 135.017 14.8667 135.433 14.44C135.849 14.0027 136.057 13.4213 136.057 12.696C136.057 11.9707 135.849 11.3947 135.433 10.968C135.028 10.5307 134.505 10.312 133.865 10.312C133.225 10.312 132.697 10.5307 132.281 10.968C131.865 11.3947 131.657 11.9707 131.657 12.696C131.657 13.4213 131.865 14.0027 132.281 14.44C132.697 14.8667 133.225 15.08 133.865 15.08ZM133.561 6.616C133.86 6.47733 134.068 6.328 134.185 6.168C134.313 6.008 134.377 5.832 134.377 5.64C134.377 5.43733 134.308 5.27733 134.169 5.16C134.031 5.032 133.849 4.968 133.625 4.968C133.305 4.968 132.991 5.06933 132.681 5.272L132.169 4.264C132.628 3.90133 133.204 3.72 133.897 3.72C134.463 3.72 134.921 3.88 135.273 4.2C135.636 4.50933 135.817 4.92 135.817 5.432C135.817 6.328 135.327 7 134.345 7.448L133.561 6.616ZM145.486 8.264C146.552 8.264 147.411 8.584 148.062 9.224C148.723 9.864 149.054 10.8133 149.054 12.072V17H146.558V12.456C146.558 11.7733 146.408 11.2667 146.11 10.936C145.811 10.5947 145.379 10.424 144.814 10.424C144.184 10.424 143.683 10.6213 143.31 11.016C142.936 11.4 142.75 11.976 142.75 12.744V17H140.254V8.392H142.638V9.4C142.968 9.03733 143.379 8.76 143.87 8.568C144.36 8.36533 144.899 8.264 145.486 8.264ZM160.29 8.392V15.56C160.29 17.1387 159.879 18.312 159.058 19.08C158.236 19.848 157.036 20.232 155.458 20.232C154.626 20.232 153.836 20.1307 153.09 19.928C152.343 19.7253 151.724 19.432 151.234 19.048L152.226 17.256C152.588 17.5547 153.047 17.7893 153.602 17.96C154.156 18.1413 154.711 18.232 155.266 18.232C156.13 18.232 156.764 18.0347 157.17 17.64C157.586 17.256 157.794 16.6693 157.794 15.88V15.512C157.143 16.2267 156.236 16.584 155.074 16.584C154.284 16.584 153.559 16.4133 152.898 16.072C152.247 15.72 151.73 15.2293 151.346 14.6C150.962 13.9707 150.77 13.2453 150.77 12.424C150.77 11.6027 150.962 10.8773 151.346 10.248C151.73 9.61867 152.247 9.13333 152.898 8.792C153.559 8.44 154.284 8.264 155.074 8.264C156.322 8.264 157.271 8.67467 157.922 9.496V8.392H160.29ZM155.57 14.536C156.231 14.536 156.77 14.344 157.186 13.96C157.612 13.5653 157.826 13.0533 157.826 12.424C157.826 11.7947 157.612 11.288 157.186 10.904C156.77 10.5093 156.231 10.312 155.57 10.312C154.908 10.312 154.364 10.5093 153.938 10.904C153.511 11.288 153.298 11.7947 153.298 12.424C153.298 13.0533 153.511 13.5653 153.938 13.96C154.364 14.344 154.908 14.536 155.57 14.536ZM172.376 8.264C173.443 8.264 174.302 8.584 174.952 9.224C175.614 9.864 175.944 10.8133 175.944 12.072V17H173.448V12.456C173.448 11.7733 173.299 11.2667 173 10.936C172.702 10.5947 172.27 10.424 171.704 10.424C171.075 10.424 170.574 10.6213 170.2 11.016C169.827 11.4 169.64 11.976 169.64 12.744V17H167.144V5.128H169.64V9.288C169.971 8.95733 170.371 8.70667 170.84 8.536C171.31 8.35467 171.822 8.264 172.376 8.264ZM181.679 8.264C183.012 8.264 184.036 8.584 184.751 9.224C185.465 9.85333 185.823 10.808 185.823 12.088V17H183.487V15.928C183.017 16.728 182.143 17.128 180.863 17.128C180.201 17.128 179.625 17.016 179.135 16.792C178.655 16.568 178.287 16.2587 178.031 15.864C177.775 15.4693 177.647 15.0213 177.647 14.52C177.647 13.72 177.945 13.0907 178.543 12.632C179.151 12.1733 180.084 11.944 181.343 11.944H183.327C183.327 11.4 183.161 10.984 182.831 10.696C182.5 10.3973 182.004 10.248 181.343 10.248C180.884 10.248 180.431 10.3227 179.983 10.472C179.545 10.6107 179.172 10.8027 178.863 11.048L177.967 9.304C178.436 8.97333 178.996 8.71733 179.647 8.536C180.308 8.35467 180.985 8.264 181.679 8.264ZM181.487 15.448C181.913 15.448 182.292 15.352 182.623 15.16C182.953 14.9573 183.188 14.664 183.327 14.28V13.4H181.615C180.591 13.4 180.079 13.736 180.079 14.408C180.079 14.728 180.201 14.984 180.447 15.176C180.703 15.3573 181.049 15.448 181.487 15.448ZM183.311 7.288L181.935 6.376L180.559 7.288H178.719L180.847 5.464H183.023L185.151 7.288H183.311ZM185.631 3.816H188.175L185.663 5.752H183.855L185.631 3.816ZM193.17 8.264C193.97 8.264 194.695 8.45067 195.346 8.824C196.007 9.18667 196.524 9.704 196.898 10.376C197.271 11.0373 197.458 11.8107 197.458 12.696C197.458 13.5813 197.271 14.36 196.898 15.032C196.524 15.6933 196.007 16.2107 195.346 16.584C194.695 16.9467 193.97 17.128 193.17 17.128C192.071 17.128 191.207 16.7813 190.578 16.088V20.104H188.082V8.392H190.466V9.384C191.084 8.63733 191.986 8.264 193.17 8.264ZM192.738 15.08C193.378 15.08 193.9 14.8667 194.306 14.44C194.722 14.0027 194.93 13.4213 194.93 12.696C194.93 11.9707 194.722 11.3947 194.306 10.968C193.9 10.5307 193.378 10.312 192.738 10.312C192.098 10.312 191.57 10.5307 191.154 10.968C190.748 11.3947 190.546 11.9707 190.546 12.696C190.546 13.4213 190.748 14.0027 191.154 14.44C191.57 14.8667 192.098 15.08 192.738 15.08ZM212.428 5.128V17H210.044V16.008C209.425 16.7547 208.529 17.128 207.356 17.128C206.545 17.128 205.809 16.9467 205.148 16.584C204.497 16.2213 203.985 15.704 203.612 15.032C203.238 14.36 203.052 13.5813 203.052 12.696C203.052 11.8107 203.238 11.032 203.612 10.36C203.985 9.688 204.497 9.17067 205.148 8.808C205.809 8.44533 206.545 8.264 207.356 8.264C208.454 8.264 209.313 8.61067 209.932 9.304V5.128H212.428ZM207.788 15.08C208.417 15.08 208.94 14.8667 209.356 14.44C209.772 14.0027 209.98 13.4213 209.98 12.696C209.98 11.9707 209.772 11.3947 209.356 10.968C208.94 10.5307 208.417 10.312 207.788 10.312C207.148 10.312 206.62 10.5307 206.204 10.968C205.788 11.3947 205.58 11.9707 205.58 12.696C205.58 13.4213 205.788 14.0027 206.204 14.44C206.62 14.8667 207.148 15.08 207.788 15.08ZM218.21 8.264C219.543 8.264 220.567 8.584 221.282 9.224C221.997 9.85333 222.354 10.808 222.354 12.088V17H220.018V15.928C219.549 16.728 218.674 17.128 217.394 17.128C216.733 17.128 216.157 17.016 215.666 16.792C215.186 16.568 214.818 16.2587 214.562 15.864C214.306 15.4693 214.178 15.0213 214.178 14.52C214.178 13.72 214.477 13.0907 215.074 12.632C215.682 12.1733 216.615 11.944 217.874 11.944H219.858C219.858 11.4 219.693 10.984 219.362 10.696C219.031 10.3973 218.535 10.248 217.874 10.248C217.415 10.248 216.962 10.3227 216.514 10.472C216.077 10.6107 215.703 10.8027 215.394 11.048L214.498 9.304C214.967 8.97333 215.527 8.71733 216.178 8.536C216.839 8.35467 217.517 8.264 218.21 8.264ZM218.018 15.448C218.445 15.448 218.823 15.352 219.154 15.16C219.485 14.9573 219.719 14.664 219.858 14.28V13.4H218.146C217.122 13.4 216.61 13.736 216.61 14.408C216.61 14.728 216.733 14.984 216.978 15.176C217.234 15.3573 217.581 15.448 218.018 15.448ZM219.842 7.288L218.466 6.376L217.09 7.288H215.25L217.378 5.464H219.554L221.682 7.288H219.842ZM219.65 4.904C219.362 4.904 219.106 4.86133 218.882 4.776C218.658 4.68 218.413 4.54667 218.146 4.376C218.018 4.30133 217.89 4.232 217.762 4.168C217.645 4.104 217.538 4.072 217.442 4.072C217.229 4.072 217.063 4.136 216.946 4.264C216.829 4.392 216.759 4.57333 216.738 4.808H215.458C215.469 4.168 215.634 3.67733 215.954 3.336C216.285 2.984 216.738 2.808 217.314 2.808C217.591 2.808 217.826 2.85067 218.018 2.936C218.221 3.02133 218.471 3.14933 218.77 3.32C218.941 3.42667 219.079 3.50667 219.186 3.56C219.303 3.61333 219.415 3.64 219.522 3.64C219.735 3.64 219.901 3.576 220.018 3.448C220.135 3.30933 220.205 3.13333 220.226 2.92H221.474C221.463 3.53867 221.298 4.024 220.978 4.376C220.658 4.728 220.215 4.904 219.65 4.904ZM229.845 8.264C230.912 8.264 231.77 8.584 232.421 9.224C233.082 9.864 233.413 10.8133 233.413 12.072V17H230.917V12.456C230.917 11.7733 230.768 11.2667 230.469 10.936C230.17 10.5947 229.738 10.424 229.173 10.424C228.544 10.424 228.042 10.6213 227.669 11.016C227.296 11.4 227.109 11.976 227.109 12.744V17H224.613V8.392H226.997V9.4C227.328 9.03733 227.738 8.76 228.229 8.568C228.72 8.36533 229.258 8.264 229.845 8.264ZM248.975 5.128V17H246.591V16.008C245.972 16.7547 245.076 17.128 243.903 17.128C243.092 17.128 242.356 16.9467 241.695 16.584C241.044 16.2213 240.532 15.704 240.159 15.032C239.785 14.36 239.599 13.5813 239.599 12.696C239.599 11.8107 239.785 11.032 240.159 10.36C240.532 9.688 241.044 9.17067 241.695 8.808C242.356 8.44533 243.092 8.264 243.903 8.264C245.001 8.264 245.86 8.61067 246.479 9.304V5.128H248.975ZM244.335 15.08C244.964 15.08 245.487 14.8667 245.903 14.44C246.319 14.0027 246.527 13.4213 246.527 12.696C246.527 11.9707 246.319 11.3947 245.903 10.968C245.487 10.5307 244.964 10.312 244.335 10.312C243.695 10.312 243.167 10.5307 242.751 10.968C242.335 11.3947 242.127 11.9707 242.127 12.696C242.127 13.4213 242.335 14.0027 242.751 14.44C243.167 14.8667 243.695 15.08 244.335 15.08ZM243.551 6.072H250.143V7.512H243.551V6.072ZM254.757 8.264C256.09 8.264 257.114 8.584 257.829 9.224C258.543 9.85333 258.901 10.808 258.901 12.088V17H256.565V15.928C256.095 16.728 255.221 17.128 253.941 17.128C253.279 17.128 252.703 17.016 252.213 16.792C251.733 16.568 251.365 16.2587 251.109 15.864C250.853 15.4693 250.725 15.0213 250.725 14.52C250.725 13.72 251.023 13.0907 251.621 12.632C252.229 12.1733 253.162 11.944 254.421 11.944H256.405C256.405 11.4 256.239 10.984 255.909 10.696C255.578 10.3973 255.082 10.248 254.421 10.248C253.962 10.248 253.509 10.3227 253.061 10.472C252.623 10.6107 252.25 10.8027 251.941 11.048L251.045 9.304C251.514 8.97333 252.074 8.71733 252.725 8.536C253.386 8.35467 254.063 8.264 254.757 8.264ZM254.565 15.448C254.991 15.448 255.37 15.352 255.701 15.16C256.031 14.9573 256.266 14.664 256.405 14.28V13.4H254.693C253.669 13.4 253.157 13.736 253.157 14.408C253.157 14.728 253.279 14.984 253.525 15.176C253.781 15.3573 254.127 15.448 254.565 15.448ZM266.392 8.264C267.458 8.264 268.317 8.584 268.968 9.224C269.629 9.864 269.96 10.8133 269.96 12.072V17H267.464V12.456C267.464 11.7733 267.314 11.2667 267.016 10.936C266.717 10.5947 266.285 10.424 265.72 10.424C265.09 10.424 264.589 10.6213 264.216 11.016C263.842 11.4 263.656 11.976 263.656 12.744V17H261.16V8.392H263.544V9.4C263.874 9.03733 264.285 8.76 264.776 8.568C265.266 8.36533 265.805 8.264 266.392 8.264ZM281.196 8.392V15.56C281.196 17.1387 280.785 18.312 279.964 19.08C279.143 19.848 277.943 20.232 276.364 20.232C275.532 20.232 274.743 20.1307 273.996 19.928C273.249 19.7253 272.631 19.432 272.14 19.048L273.132 17.256C273.495 17.5547 273.953 17.7893 274.508 17.96C275.063 18.1413 275.617 18.232 276.172 18.232C277.036 18.232 277.671 18.0347 278.076 17.64C278.492 17.256 278.7 16.6693 278.7 15.88V15.512C278.049 16.2267 277.143 16.584 275.98 16.584C275.191 16.584 274.465 16.4133 273.804 16.072C273.153 15.72 272.636 15.2293 272.252 14.6C271.868 13.9707 271.676 13.2453 271.676 12.424C271.676 11.6027 271.868 10.8773 272.252 10.248C272.636 9.61867 273.153 9.13333 273.804 8.792C274.465 8.44 275.191 8.264 275.98 8.264C277.228 8.264 278.177 8.67467 278.828 9.496V8.392H281.196ZM276.476 14.536C277.137 14.536 277.676 14.344 278.092 13.96C278.519 13.5653 278.732 13.0533 278.732 12.424C278.732 11.7947 278.519 11.288 278.092 10.904C277.676 10.5093 277.137 10.312 276.476 10.312C275.815 10.312 275.271 10.5093 274.844 10.904C274.417 11.288 274.204 11.7947 274.204 12.424C274.204 13.0533 274.417 13.5653 274.844 13.96C275.271 14.344 275.815 14.536 276.476 14.536ZM67.6323 43.128C66.715 43.128 65.8883 42.9413 65.1523 42.568C64.427 42.184 63.8563 41.656 63.4403 40.984C63.035 40.312 62.8323 39.5493 62.8323 38.696C62.8323 37.8427 63.035 37.08 63.4403 36.408C63.8563 35.736 64.427 35.2133 65.1523 34.84C65.8883 34.456 66.715 34.264 67.6323 34.264C68.539 34.264 69.3283 34.456 70.0003 34.84C70.683 35.2133 71.179 35.752 71.4883 36.456L69.5523 37.496C69.1043 36.7067 68.459 36.312 67.6163 36.312C66.9656 36.312 66.427 36.5253 66.0003 36.952C65.5736 37.3787 65.3603 37.96 65.3603 38.696C65.3603 39.432 65.5736 40.0133 66.0003 40.44C66.427 40.8667 66.9656 41.08 67.6163 41.08C68.4696 41.08 69.115 40.6853 69.5523 39.896L71.4883 40.952C71.179 41.6347 70.683 42.168 70.0003 42.552C69.3283 42.936 68.539 43.128 67.6323 43.128ZM78.0949 34.264C79.1616 34.264 80.0203 34.584 80.6709 35.224C81.3323 35.864 81.6629 36.8133 81.6629 38.072V43H79.1669V38.456C79.1669 37.7733 79.0176 37.2667 78.7189 36.936C78.4203 36.5947 77.9883 36.424 77.4229 36.424C76.7936 36.424 76.2923 36.6213 75.9189 37.016C75.5456 37.4 75.3589 37.976 75.3589 38.744V43H72.8629V31.128H75.3589V35.288C75.6896 34.9573 76.0896 34.7067 76.5589 34.536C77.0283 34.3547 77.5403 34.264 78.0949 34.264ZM91.5072 35.528C91.9339 35.9227 92.2592 36.392 92.4832 36.936C92.7179 37.4693 92.8352 38.056 92.8352 38.696C92.8352 39.5493 92.6325 40.312 92.2272 40.984C91.8219 41.656 91.2619 42.184 90.5472 42.568C89.8325 42.9413 89.0219 43.128 88.1152 43.128C87.2085 43.128 86.3925 42.9413 85.6672 42.568C84.9525 42.184 84.3925 41.656 83.9872 40.984C83.5819 40.312 83.3792 39.5493 83.3792 38.696C83.3792 37.8427 83.5819 37.08 83.9872 36.408C84.4032 35.736 84.9685 35.2133 85.6832 34.84C86.4085 34.456 87.2245 34.264 88.1312 34.264C88.3445 34.264 88.7179 34.2907 89.2512 34.344C89.6139 34.3867 89.8752 34.408 90.0352 34.408C90.3659 34.408 90.6165 34.312 90.7872 34.12C90.9685 33.928 91.0592 33.6773 91.0592 33.368C91.0592 33.0267 90.9472 32.7067 90.7232 32.408L92.1792 31.864C92.5419 32.3547 92.7232 32.888 92.7232 33.464C92.7232 33.9227 92.6165 34.3333 92.4032 34.696C92.1899 35.048 91.8912 35.3253 91.5072 35.528ZM88.1152 41.08C88.7445 41.08 89.2672 40.8667 89.6832 40.44C90.0992 40.0027 90.3072 39.4213 90.3072 38.696C90.3072 37.9707 90.0992 37.3947 89.6832 36.968C89.2779 36.5307 88.7552 36.312 88.1152 36.312C87.4752 36.312 86.9472 36.5307 86.5312 36.968C86.1152 37.3947 85.9072 37.9707 85.9072 38.696C85.9072 39.4213 86.1152 40.0027 86.5312 40.44C86.9472 40.8667 87.4752 41.08 88.1152 41.08ZM84.7232 30.984H87.4112L89.5712 33.288H87.6192L84.7232 30.984ZM104.123 34.264C104.923 34.264 105.648 34.4507 106.299 34.824C106.96 35.1867 107.477 35.704 107.851 36.376C108.224 37.0373 108.411 37.8107 108.411 38.696C108.411 39.5813 108.224 40.36 107.851 41.032C107.477 41.6933 106.96 42.2107 106.299 42.584C105.648 42.9467 104.923 43.128 104.123 43.128C102.939 43.128 102.037 42.7547 101.419 42.008V43H99.0348V31.128H101.531V35.304C102.16 34.6107 103.024 34.264 104.123 34.264ZM103.691 41.08C104.331 41.08 104.853 40.8667 105.259 40.44C105.675 40.0027 105.883 39.4213 105.883 38.696C105.883 37.9707 105.675 37.3947 105.259 36.968C104.853 36.5307 104.331 36.312 103.691 36.312C103.051 36.312 102.523 36.5307 102.107 36.968C101.701 37.3947 101.499 37.9707 101.499 38.696C101.499 39.4213 101.701 40.0027 102.107 40.44C102.523 40.8667 103.051 41.08 103.691 41.08ZM113.413 34.264C114.746 34.264 115.77 34.584 116.485 35.224C117.2 35.8533 117.557 36.808 117.557 38.088V43H115.221V41.928C114.752 42.728 113.877 43.128 112.597 43.128C111.936 43.128 111.36 43.016 110.869 42.792C110.389 42.568 110.021 42.2587 109.765 41.864C109.509 41.4693 109.381 41.0213 109.381 40.52C109.381 39.72 109.68 39.0907 110.277 38.632C110.885 38.1733 111.818 37.944 113.077 37.944H115.061C115.061 37.4 114.896 36.984 114.565 36.696C114.234 36.3973 113.738 36.248 113.077 36.248C112.618 36.248 112.165 36.3227 111.717 36.472C111.28 36.6107 110.906 36.8027 110.597 37.048L109.701 35.304C110.17 34.9733 110.73 34.7173 111.381 34.536C112.042 34.3547 112.72 34.264 113.413 34.264ZM113.221 41.448C113.648 41.448 114.026 41.352 114.357 41.16C114.688 40.9573 114.922 40.664 115.061 40.28V39.4H113.349C112.325 39.4 111.813 39.736 111.813 40.408C111.813 40.728 111.936 40.984 112.181 41.176C112.437 41.3573 112.784 41.448 113.221 41.448ZM113.477 46.36C113.157 46.36 112.89 46.2587 112.677 46.056C112.474 45.864 112.373 45.608 112.373 45.288C112.373 44.968 112.474 44.7013 112.677 44.488C112.89 44.2747 113.157 44.168 113.477 44.168C113.786 44.168 114.048 44.2747 114.261 44.488C114.474 44.7013 114.581 44.968 114.581 45.288C114.581 45.608 114.474 45.864 114.261 46.056C114.058 46.2587 113.797 46.36 113.477 46.36ZM125.048 34.264C126.115 34.264 126.973 34.584 127.624 35.224C128.285 35.864 128.616 36.8133 128.616 38.072V43H126.12V38.456C126.12 37.7733 125.971 37.2667 125.672 36.936C125.373 36.5947 124.941 36.424 124.376 36.424C123.747 36.424 123.245 36.6213 122.872 37.016C122.499 37.4 122.312 37.976 122.312 38.744V43H119.816V34.392H122.2V35.4C122.531 35.0373 122.941 34.76 123.432 34.568C123.923 34.3653 124.461 34.264 125.048 34.264ZM139.106 39.624L137.906 40.808V43H135.41V31.128H137.906V37.848L141.554 34.392H144.53L140.946 38.04L144.85 43H141.826L139.106 39.624ZM151.204 34.264C152.271 34.264 153.13 34.584 153.78 35.224C154.442 35.864 154.772 36.8133 154.772 38.072V43H152.276V38.456C152.276 37.7733 152.127 37.2667 151.828 36.936C151.53 36.5947 151.098 36.424 150.532 36.424C149.903 36.424 149.402 36.6213 149.028 37.016C148.655 37.4 148.468 37.976 148.468 38.744V43H145.972V31.128H148.468V35.288C148.799 34.9573 149.199 34.7067 149.668 34.536C150.138 34.3547 150.65 34.264 151.204 34.264ZM160.507 34.264C161.84 34.264 162.864 34.584 163.579 35.224C164.293 35.8533 164.651 36.808 164.651 38.088V43H162.315V41.928C161.845 42.728 160.971 43.128 159.691 43.128C159.029 43.128 158.453 43.016 157.963 42.792C157.483 42.568 157.115 42.2587 156.859 41.864C156.603 41.4693 156.475 41.0213 156.475 40.52C156.475 39.72 156.773 39.0907 157.371 38.632C157.979 38.1733 158.912 37.944 160.171 37.944H162.155C162.155 37.4 161.989 36.984 161.659 36.696C161.328 36.3973 160.832 36.248 160.171 36.248C159.712 36.248 159.259 36.3227 158.811 36.472C158.373 36.6107 158 36.8027 157.691 37.048L156.795 35.304C157.264 34.9733 157.824 34.7173 158.475 34.536C159.136 34.3547 159.813 34.264 160.507 34.264ZM160.315 41.448C160.741 41.448 161.12 41.352 161.451 41.16C161.781 40.9573 162.016 40.664 162.155 40.28V39.4H160.443C159.419 39.4 158.907 39.736 158.907 40.408C158.907 40.728 159.029 40.984 159.275 41.176C159.531 41.3573 159.877 41.448 160.315 41.448ZM161.467 30.984H164.155L161.259 33.288H159.307L161.467 30.984ZM177.934 34.264C179.011 34.264 179.864 34.584 180.494 35.224C181.134 35.8533 181.454 36.8027 181.454 38.072V43H178.958V38.456C178.958 37.7733 178.814 37.2667 178.526 36.936C178.248 36.5947 177.848 36.424 177.326 36.424C176.739 36.424 176.275 36.616 175.934 37C175.592 37.3733 175.422 37.9333 175.422 38.68V43H172.926V38.456C172.926 37.1013 172.382 36.424 171.294 36.424C170.718 36.424 170.259 36.616 169.918 37C169.576 37.3733 169.406 37.9333 169.406 38.68V43H166.91V34.392H169.294V35.384C169.614 35.0213 170.003 34.744 170.462 34.552C170.931 34.36 171.443 34.264 171.998 34.264C172.606 34.264 173.155 34.3867 173.646 34.632C174.136 34.8667 174.531 35.2133 174.83 35.672C175.182 35.224 175.624 34.8773 176.158 34.632C176.702 34.3867 177.294 34.264 177.934 34.264ZM193.31 34.264C194.11 34.264 194.836 34.4507 195.486 34.824C196.148 35.1867 196.665 35.704 197.038 36.376C197.412 37.0373 197.598 37.8107 197.598 38.696C197.598 39.5813 197.412 40.36 197.038 41.032C196.665 41.6933 196.148 42.2107 195.486 42.584C194.836 42.9467 194.11 43.128 193.31 43.128C192.212 43.128 191.348 42.7813 190.718 42.088V46.104H188.222V34.392H190.606V35.384C191.225 34.6373 192.126 34.264 193.31 34.264ZM192.878 41.08C193.518 41.08 194.041 40.8667 194.446 40.44C194.862 40.0027 195.07 39.4213 195.07 38.696C195.07 37.9707 194.862 37.3947 194.446 36.968C194.041 36.5307 193.518 36.312 192.878 36.312C192.238 36.312 191.71 36.5307 191.294 36.968C190.889 37.3947 190.686 37.9707 190.686 38.696C190.686 39.4213 190.889 40.0027 191.294 40.44C191.71 40.8667 192.238 41.08 192.878 41.08ZM204.501 34.264C205.568 34.264 206.427 34.584 207.077 35.224C207.739 35.864 208.069 36.8133 208.069 38.072V43H205.573V38.456C205.573 37.7733 205.424 37.2667 205.125 36.936C204.827 36.5947 204.395 36.424 203.829 36.424C203.2 36.424 202.699 36.6213 202.325 37.016C201.952 37.4 201.765 37.976 201.765 38.744V43H199.269V31.128H201.765V35.288C202.096 34.9573 202.496 34.7067 202.965 34.536C203.435 34.3547 203.947 34.264 204.501 34.264ZM213.804 34.264C215.137 34.264 216.161 34.584 216.876 35.224C217.59 35.8533 217.948 36.808 217.948 38.088V43H215.612V41.928C215.142 42.728 214.268 43.128 212.988 43.128C212.326 43.128 211.75 43.016 211.26 42.792C210.78 42.568 210.412 42.2587 210.156 41.864C209.9 41.4693 209.772 41.0213 209.772 40.52C209.772 39.72 210.07 39.0907 210.668 38.632C211.276 38.1733 212.209 37.944 213.468 37.944H215.452C215.452 37.4 215.286 36.984 214.956 36.696C214.625 36.3973 214.129 36.248 213.468 36.248C213.009 36.248 212.556 36.3227 212.108 36.472C211.67 36.6107 211.297 36.8027 210.988 37.048L210.092 35.304C210.561 34.9733 211.121 34.7173 211.772 34.536C212.433 34.3547 213.11 34.264 213.804 34.264ZM213.612 41.448C214.038 41.448 214.417 41.352 214.748 41.16C215.078 40.9573 215.313 40.664 215.452 40.28V39.4H213.74C212.716 39.4 212.204 39.736 212.204 40.408C212.204 40.728 212.326 40.984 212.572 41.176C212.828 41.3573 213.174 41.448 213.612 41.448ZM214.764 30.984H217.452L214.556 33.288H212.604L214.764 30.984ZM219.887 31.8H222.863L222.367 39.112H220.383L219.887 31.8ZM221.375 43.128C220.937 43.128 220.569 42.9893 220.271 42.712C219.983 42.424 219.839 42.0773 219.839 41.672C219.839 41.2667 219.983 40.9307 220.271 40.664C220.559 40.3867 220.927 40.248 221.375 40.248C221.823 40.248 222.191 40.3867 222.479 40.664C222.767 40.9307 222.911 41.2667 222.911 41.672C222.911 42.0773 222.761 42.424 222.463 42.712C222.175 42.9893 221.812 43.128 221.375 43.128Z" fill="white"/>
</g>
<defs>
<filter id="filter0_d_2325_2371" x="0.489258" y="0.808105" width="283.707" height="49.5518" filterUnits="userSpaceOnUse" color-interpolation-filters="sRGB">
<feFlood flood-opacity="0" result="BackgroundImageFix"/>
<feColorMatrix in="SourceAlpha" type="matrix" values="0 0 0 0 0 0 0 0 0 0 0 0 0 0 0 0 0 0 127 0" result="hardAlpha"/>
<feOffset dy="1"/>
<feGaussianBlur stdDeviation="1.5"/>
<feComposite in2="hardAlpha" operator="out"/>
<feColorMatrix type="matrix" values="0 0 0 0 0.7 0 0 0 0 0.155242 0 0 0 0 0 0 0 0 1 0"/>
<feBlend mode="normal" in2="BackgroundImageFix" result="effect1_dropShadow_2325_2371"/>
<feBlend mode="normal" in="SourceGraphic" in2="effect1_dropShadow_2325_2371" result="shape"/>
</filter>
</defs>
</svg>
