<svg width="351" height="419" viewBox="0 0 351 419" fill="none" xmlns="http://www.w3.org/2000/svg">
<rect width="351" height="419" rx="16" fill="white"/>
<path d="M229.567 48.0104C230.06 48.4712 230.008 49.01 229.746 49.3519C229.526 49.6455 229.045 49.8945 228.44 49.5489C228.324 49.6752 228.209 49.8053 228.089 49.9353C226.267 51.8863 224.043 53.1312 221.426 53.6812C220.164 53.945 218.891 54.0268 217.607 53.9376C215.715 53.8001 213.979 53.1795 212.4 52.1316C212.321 52.0795 212.254 52.061 212.153 52.087C211.534 52.2431 210.94 51.7748 210.948 51.1356C210.948 51.0465 210.925 50.987 210.858 50.9275C210.216 50.3478 209.667 49.6826 209.1 49.0286C207.775 47.4901 206.942 45.7064 206.368 43.7852C206.11 42.9304 205.893 42.0683 205.778 41.1801C205.632 40.0356 205.729 38.9096 206.028 37.7948C206.241 36.9995 206.506 36.2265 206.842 35.4759C206.875 35.3979 206.875 35.3495 206.819 35.2752C206.547 34.9296 206.494 34.5431 206.703 34.1567C206.909 33.7702 207.252 33.5992 207.689 33.6364C207.771 33.6438 207.816 33.6215 207.864 33.5547C208.245 33.027 208.633 32.503 209.014 31.9753C209.048 31.9307 209.066 31.8527 209.055 31.7969C208.872 31.0203 209.518 30.3774 210.302 30.5595C210.35 30.5706 210.425 30.5483 210.466 30.5149C211.907 29.296 213.546 28.4747 215.386 28.0474C216.547 27.7798 217.727 27.6906 218.914 27.7278C220.523 27.7761 222.075 28.0845 223.557 28.7237C225.573 29.597 227.178 30.9719 228.444 32.7445C229.377 34.0526 230.056 35.487 230.545 37.0107C230.583 37.1221 230.624 37.1779 230.754 37.2076C231.176 37.3042 231.452 37.5755 231.549 37.9954C231.647 38.4191 231.508 38.7758 231.154 39.0322C231.057 39.1028 231.087 39.1734 231.102 39.2515C231.277 40.2251 231.374 41.2062 231.363 42.1946C231.348 43.5882 231.038 44.926 230.482 46.1969C230.221 46.7952 229.888 47.3638 229.59 47.9435C229.593 47.9695 229.579 47.9918 229.567 48.0104ZM207.551 35.6654C207.304 36.4569 207.185 37.2596 207.163 38.0697C207.122 39.4596 207.248 40.8383 207.566 42.1946C208.01 44.1122 208.79 45.8773 210.059 47.4009C211.978 49.7087 214.46 50.935 217.458 51.1134C218.477 51.1728 219.492 51.1133 220.504 50.961C221.758 50.7715 222.964 50.4333 224.106 49.8796C225.853 49.0286 227.231 47.7874 228.153 46.0706C228.843 44.7811 229.187 43.3912 229.295 41.9419C229.377 40.8791 229.347 39.8163 229.164 38.7609C228.948 37.4863 228.533 36.2786 227.891 35.1563C226.637 32.9638 224.823 31.377 222.531 30.3216C221.46 29.8274 220.34 29.5004 219.164 29.4075C218.036 29.322 216.913 29.3666 215.793 29.5338C214.539 29.7196 213.329 30.0503 212.183 30.5892C211.791 30.775 211.411 30.9905 211.026 31.1875C211.101 31.4365 211.112 31.6557 211.041 31.875C210.847 32.4621 210.19 32.7297 209.623 32.4584C209.567 32.4324 209.522 32.3915 209.458 32.4547C209.025 32.8969 208.645 33.38 208.327 33.9077C208.633 34.2496 208.745 34.6323 208.559 35.056C208.372 35.4833 208.021 35.6728 207.551 35.6654ZM230.489 39.2255C230.489 39.2626 230.489 39.2924 230.489 39.3221C230.515 39.7866 230.549 40.2548 230.568 40.7193C230.605 41.5926 230.519 42.4548 230.28 43.3021C229.844 44.8517 229.03 46.1969 227.958 47.3861C225.954 49.612 223.509 51.1765 220.679 52.1539C219.873 52.4326 219.044 52.6407 218.186 52.6444C216.943 52.6518 215.711 52.5218 214.509 52.2059C213.915 52.0498 213.333 51.8454 212.732 51.6559C212.721 51.6708 212.695 51.7116 212.665 51.7488C212.635 51.786 212.601 51.8231 212.568 51.8603C212.586 51.8752 212.598 51.8863 212.613 51.8975C214.139 52.8971 215.812 53.4805 217.637 53.618C218.828 53.7072 220.015 53.6292 221.187 53.3988C223.524 52.9417 225.569 51.9049 227.298 50.2661C227.615 49.9651 227.91 49.6381 228.216 49.3259C228.078 49.1215 228.011 48.9246 228.022 48.709C228.055 48.1219 228.574 47.7205 229.157 47.8394C229.257 47.8617 229.295 47.832 229.336 47.7577C229.616 47.2151 229.926 46.6874 230.168 46.13C230.769 44.7588 231.09 43.3206 231.046 41.8193C231.031 41.2879 230.982 40.7528 230.934 40.2214C230.9 39.8832 230.836 39.5488 230.784 39.2106C230.747 39.2069 230.725 39.2069 230.702 39.2069C230.635 39.2143 230.564 39.2217 230.489 39.2255ZM207.23 35.5837C207.215 35.5799 207.204 35.5725 207.189 35.5688C207.159 35.6245 207.129 35.6766 207.103 35.7323C206.606 36.9029 206.345 38.1292 206.259 39.3964C206.158 40.8866 206.3 42.3544 206.722 43.7889C207.114 45.1192 207.726 46.3567 208.458 47.5347C208.947 48.3225 209.466 49.0918 210.194 49.6901C210.53 49.9651 210.873 50.2326 211.209 50.5002C211.594 50.1917 211.985 50.136 212.385 50.3738C212.751 50.5894 212.889 50.9275 212.852 51.3512C212.878 51.366 212.911 51.3846 212.941 51.3958C213.471 51.5704 213.994 51.76 214.531 51.9086C215.375 52.139 216.245 52.2393 217.118 52.3062C217.954 52.3694 218.783 52.3434 219.601 52.1464C220.974 51.8157 222.258 51.262 223.486 50.5708C223.509 50.5596 223.528 50.5374 223.55 50.5225C223.386 50.5597 223.236 50.6191 223.087 50.6711C221.84 51.1096 220.552 51.3512 219.235 51.4292C218.178 51.4924 217.126 51.4812 216.084 51.288C213.762 50.8495 211.806 49.7458 210.22 48.0067C208.749 46.3939 207.823 44.4949 207.297 42.3953C207.039 41.3697 206.901 40.3292 206.853 39.2738C206.801 38.1701 206.853 37.0775 207.129 36.0036C207.163 35.8549 207.196 35.7212 207.23 35.5837ZM228.418 46.3158C228.421 46.3195 228.421 46.3233 228.425 46.327C228.511 46.2043 228.601 46.0891 228.679 45.9628C228.91 45.5726 229.16 45.1936 229.362 44.7885C229.914 43.7034 230.243 42.5514 230.243 41.3288C230.243 40.6264 230.191 39.9204 230.153 39.218C230.15 39.1734 230.101 39.1177 230.06 39.0917C229.467 38.7312 229.351 38.0066 229.802 37.4863C229.836 37.4492 229.858 37.3711 229.844 37.3228C229.754 36.9661 229.668 36.6093 229.56 36.26C229.101 34.7698 228.395 33.4172 227.343 32.254C226.036 30.8122 224.405 29.9054 222.546 29.3852C221.269 29.0284 219.963 28.8723 218.637 28.8389C217.253 28.8054 215.883 28.9058 214.531 29.2254C213.24 29.5338 212.034 30.0355 210.948 30.8047C210.907 30.8344 210.869 30.8642 210.832 30.8939C210.84 30.9051 210.847 30.9199 210.858 30.9311C210.899 30.9088 210.94 30.8902 210.981 30.8679C211.381 30.6598 211.769 30.4331 212.18 30.2473C214.016 29.426 215.95 29.0767 217.954 29.0581C218.876 29.0507 219.791 29.1139 220.687 29.348C223.21 30.0058 225.316 31.3287 226.992 33.3131C228.664 35.2938 229.504 37.6052 229.638 40.1805C229.679 40.9349 229.653 41.6855 229.567 42.4399C229.463 43.3689 229.265 44.2794 228.925 45.1527C228.776 45.5429 228.589 45.9256 228.418 46.3158ZM225.976 30.5966C225.984 30.5892 225.987 30.578 225.995 30.5706C223.953 28.9169 221.59 28.1403 218.985 28.0436C216.607 27.9545 214.352 28.4115 212.288 29.6304C212.303 29.6379 212.314 29.6341 212.325 29.6304C213.878 28.9244 215.524 28.6085 217.219 28.5267C218.731 28.4561 220.235 28.5379 221.725 28.8463C223.225 29.1548 224.632 29.6862 225.905 30.552C225.924 30.5669 225.95 30.5818 225.976 30.5966ZM229.896 36.0705C229.885 36.0742 229.873 36.0779 229.862 36.0779C229.967 36.4644 230.071 36.8509 230.176 37.2411C230.209 37.2299 230.243 37.215 230.291 37.1965C230.157 36.8174 230.026 36.4421 229.896 36.0705Z" fill="#F37021"/>
<path d="M218.26 50.7753C216.445 50.8608 214.657 50.203 213.037 49.0547C212.007 48.3226 211.048 47.5051 210.271 46.5017C209.308 45.2606 208.666 43.8744 208.345 42.3397C208.162 41.459 208.102 40.5708 208.166 39.6789C208.323 37.5236 209.099 35.6135 210.533 33.9821C211.91 32.4139 213.627 31.3994 215.665 30.9275C216.091 30.8308 216.531 30.79 216.968 30.7268C217.046 30.7156 217.095 30.6933 217.132 30.619C217.461 29.9687 218.282 29.8461 218.801 30.3663C218.857 30.4221 218.939 30.4704 219.014 30.4815C221.306 30.8977 223.437 31.693 225.277 33.1497C227.106 34.599 228.23 36.4793 228.674 38.761C228.898 39.9205 228.936 41.0836 228.835 42.2579C228.727 43.5103 228.443 44.7143 227.879 45.8477C227.047 47.5125 225.755 48.7128 224.09 49.5304C223 50.0655 221.843 50.3925 220.649 50.582C219.924 50.6972 219.2 50.7641 218.26 50.7753ZM219.958 42.3137C219.951 42.3137 219.939 42.3137 219.932 42.3137C219.932 42.5961 219.917 42.8785 219.939 43.1609C219.954 43.3542 220.007 43.5437 220.07 43.7295C220.178 44.0417 220.454 44.1011 220.746 44.1197C220.97 44.1346 221.111 44.0045 221.216 43.8373C221.328 43.6552 221.429 43.4657 221.503 43.265C221.824 42.414 221.94 41.5184 222.131 40.6377C222.265 40.0171 222.411 39.4002 222.56 38.7833C222.69 38.2371 222.997 37.8543 223.571 37.6982C223.803 37.6351 224.031 37.5124 224.232 37.3787C224.71 37.0702 224.822 36.4979 224.505 36.0297C224.393 35.8662 224.251 35.7138 224.098 35.5838C223.571 35.1378 222.952 34.8591 222.291 34.6622C221.907 34.547 221.511 34.4541 221.111 34.5061C220.328 34.6139 219.682 34.9966 219.152 35.5652C219.021 35.7064 218.909 35.8848 218.853 36.0631C218.771 36.3307 218.924 36.5648 219.099 36.7506C219.372 37.0479 219.667 37.3303 219.962 37.6053C220.085 37.7205 220.145 37.8543 220.141 38.0067C220.13 38.5344 220.115 39.0621 220.081 39.5897C220.051 40.0617 219.98 40.5336 219.958 41.0056C219.939 41.4441 219.958 41.8789 219.958 42.3137ZM216.58 50.2848C216.58 50.2996 216.576 50.3108 216.576 50.3256C216.953 50.3665 217.334 50.4297 217.711 50.4445C218.532 50.478 219.35 50.4445 220.167 50.3442C221.238 50.2141 222.287 49.98 223.288 49.5787C225.751 48.5939 227.409 46.8696 228.14 44.3092C228.596 42.7224 228.667 41.1022 228.461 39.4708C228.327 38.382 228.021 37.3415 227.521 36.3604C226.584 34.5321 225.135 33.2203 223.34 32.2616C223.318 32.2504 223.295 32.243 223.273 32.2355C223.288 32.269 223.31 32.2876 223.336 32.3024C224.277 32.9119 225.098 33.6551 225.792 34.5321C227.106 36.1932 227.834 38.081 227.958 40.1918C228.014 41.1542 227.943 42.1167 227.696 43.0569C226.808 46.4014 224.729 48.6757 221.477 49.8797C220.641 50.1881 219.768 50.3442 218.875 50.4C218.26 50.4371 217.651 50.4185 217.043 50.3442C216.89 50.3219 216.737 50.3033 216.58 50.2848ZM221.108 44.941C220.943 44.9261 220.776 44.915 220.611 44.8964C220.01 44.8258 219.469 44.6028 218.984 44.2461C218.715 44.0491 218.554 43.789 218.577 43.4434C218.588 43.2873 218.61 43.1312 218.614 42.9751C218.614 42.9082 218.603 42.8228 218.562 42.7819C218.532 42.7559 218.431 42.7782 218.379 42.8079C218.23 42.9008 218.073 42.99 217.957 43.1126C217.576 43.5103 217.532 43.8559 217.812 44.3055C218.013 44.6325 218.274 44.9001 218.577 45.1305C219.566 45.8849 220.678 46.1636 221.907 45.9666C222.355 45.8923 222.769 45.7214 223.101 45.398C223.665 44.8481 223.713 44.2535 223.277 43.644C223.235 43.5883 223.176 43.54 223.116 43.5065C223.045 43.4657 222.982 43.4917 222.967 43.5772C222.952 43.6515 222.944 43.7258 222.937 43.8038C222.9 44.2349 222.72 44.5805 222.246 44.744C221.877 44.8704 221.496 44.9335 221.108 44.941ZM213.459 42.6333C213.735 41.8231 214.012 41.013 214.292 40.188C213.694 40.1174 213.116 40.0468 212.533 39.9799C212.16 40.7046 211.79 41.4181 211.421 42.139C211.772 42.2245 212.104 42.31 212.436 42.3917C212.772 42.466 213.112 42.5478 213.459 42.6333ZM215.184 39.7421C215.225 39.757 215.255 39.7718 215.281 39.7755C215.923 39.9019 216.569 40.0282 217.211 40.1472C217.461 40.1955 217.7 40.2661 217.953 40.1026C218.405 39.809 218.51 39.4114 218.204 38.9692C218.177 38.9283 218.118 38.8948 218.069 38.8911C217.789 38.8577 217.509 38.8279 217.226 38.8019C216.796 38.7648 216.367 38.7313 215.938 38.6979C215.904 38.6942 215.852 38.709 215.837 38.735C215.62 39.0658 215.404 39.4002 215.184 39.7421ZM212.936 38.003C212.216 37.9844 211.518 37.9621 210.82 37.9509C210.771 37.9509 210.712 37.9881 210.678 38.0253C210.551 38.1665 210.432 38.3114 210.312 38.4563C210.174 38.6236 210.036 38.7908 209.883 38.9766C210.058 38.9952 210.204 39.0063 210.35 39.0212C210.674 39.0546 210.999 39.0881 211.328 39.1215C211.63 39.1512 211.936 39.1847 212.238 39.207C212.279 39.2107 212.343 39.1847 212.358 39.155C212.548 38.7833 212.735 38.4043 212.936 38.003ZM213.672 37.9324C214.254 37.9324 214.81 37.9324 215.382 37.9324C215.535 37.4939 215.688 37.0405 215.859 36.5462C215.344 36.5462 214.855 36.5462 214.362 36.55C214.329 36.55 214.284 36.5983 214.265 36.6354C214.153 36.8695 214.049 37.1037 213.941 37.3415C213.858 37.531 213.769 37.7205 213.672 37.9324Z" fill="#F37021"/>
<path d="M175.067 34.5894L190.002 34.5931L190.043 36.7447C190.058 37.5585 189.412 38.22 188.602 38.22L173.667 38.2163L173.626 36.0647C173.607 35.2508 174.253 34.5894 175.067 34.5894Z" fill="#F37021"/>
<path d="M187.475 45.4805L177.9 45.4768L177.855 43.1654L184.817 43.1691C186.149 43.1691 187.21 42.084 187.183 40.7499L187.172 40.1404L176.067 40.1367C174.76 40.1367 173.723 41.1995 173.749 42.5076L173.82 46.0751C173.85 47.5727 175.081 48.7879 176.575 48.7879L190.282 48.7916L190.27 48.2342C190.241 46.7105 188.986 45.4805 187.475 45.4805Z" fill="#F37021"/>
<path d="M204.773 45.3242L195.019 45.3205L194.862 37.1859C194.836 35.7552 193.656 34.5958 192.23 34.592H190.722L190.95 46.1938C190.976 47.461 191.917 48.5424 193.167 48.743C193.518 48.8731 193.888 48.94 194.261 48.9437L206.856 48.9474L206.826 47.3309C206.796 46.2272 205.882 45.3242 204.773 45.3242Z" fill="#F37021"/>
<path d="M265.715 34.62C264.289 34.62 263.154 35.7794 263.184 37.2101L263.341 45.3447L254.401 45.341L254.244 37.2064C254.218 35.7757 253.038 34.6163 251.612 34.6125H250.104L250.332 46.2143C250.358 47.4815 251.299 48.5629 252.549 48.7635C252.9 48.8936 253.27 48.9605 253.643 48.9642L264.252 48.9679C264.625 48.9642 264.991 48.8973 265.338 48.7672C266.581 48.5666 267.481 47.4852 267.458 46.218L267.231 34.6163L265.715 34.62Z" fill="#F37021"/>
<path d="M234.04 34.6118L249.356 34.6155L249.397 36.7486C249.412 37.5736 248.763 38.2425 247.938 38.2425L232.622 38.2388L232.581 36.1057C232.566 35.2807 233.219 34.6118 234.04 34.6118Z" fill="#F37021"/>
<path d="M236.75 40.1526H235.022C233.715 40.1526 232.678 41.2154 232.704 42.5235L232.827 48.8223H236.918L236.84 44.716L236.81 43.1812L243.772 43.185C245.104 43.185 246.165 42.1036 246.138 40.7658L246.127 40.1563L236.75 40.1526Z" fill="#F37021"/>
<path d="M284.854 34.7251L285.13 48.8166H280.878L273.3 40.9459L273.412 46.6687C273.435 47.8542 272.494 48.8166 271.311 48.8166H271.307H269.164L268.888 34.7251H273.177L280.561 42.5401L280.449 36.8507C280.482 35.6616 281.442 34.7251 282.629 34.7288L284.854 34.7251Z" fill="#F37021"/>
<path d="M98.1504 48.872C95.2393 50.5767 91.7775 49.6588 89.968 46.9576C89.3123 45.961 89.1287 45.2004 88.9452 43.8367L88.7616 42.3681C88.7354 42.0796 88.6829 41.7649 88.6567 41.4239C88.5255 39.8242 88.342 38.3555 88.2371 37.6999C88.2371 37.6999 89.2599 34.1856 90.4663 34.1069C90.9908 34.6839 91.3055 35.4969 91.4366 36.5722C91.594 37.8048 91.7513 40.27 91.9087 42.6303C91.9873 43.3909 92.0398 44.1514 92.1709 44.5186C92.6168 45.5676 93.3773 46.4068 94.505 46.538C95.895 46.7215 97.1801 46.0659 97.8095 44.8595C98.098 44.3088 98.0717 43.2597 98.098 43.1548C98.1504 43.1286 98.5176 45.2004 98.1504 48.872Z" fill="#F37021"/>
<path d="M101.297 49.606C101.245 52.4121 99.8025 54.4577 97.2324 55.5592C95.3442 56.3722 93.5608 56.2673 91.9086 55.4543C90.7284 54.7462 90.7546 53.3038 91.4103 52.8842C91.4627 52.858 91.5152 52.8318 91.5676 52.8055C92.4069 52.4121 93.0363 52.5957 93.7444 52.7793C94.164 52.9104 94.5574 52.9629 94.9508 52.9629C95.6326 52.9367 96.2358 52.6744 96.7603 52.281C97.0488 52.045 97.2849 51.7827 97.4684 51.5205C97.4947 51.4942 97.4947 51.468 97.5209 51.468C97.5734 51.3893 97.6258 51.3369 97.652 51.2582C97.9405 50.7599 98.0716 50.2354 98.1241 49.7633C98.1241 49.4749 98.1503 49.1864 98.1503 48.8979C98.5175 45.2263 98.1503 43.1544 98.1503 43.1544C98.1503 42.3414 98.1503 41.5547 98.1765 40.7417C98.2028 39.1681 99.3829 37.8568 100.93 37.6733C101.219 37.6208 101.324 37.647 101.324 37.988C101.297 41.8432 101.376 45.7246 101.297 49.606Z" fill="#F37021"/>
<path d="M83.7526 49.6847C83.6476 49.6847 82.9133 49.7109 82.9133 49.7109C81.8381 49.7109 80.8677 48.8455 80.2645 47.0621L77.878 40.0598C77.5895 39.2206 77.1961 38.224 76.9601 37.6208C76.9601 37.6208 76.724 35.549 77.2748 34.972C77.6944 34.5262 78.2976 34.2115 78.7697 34.5262C78.7697 34.5262 78.7696 34.5262 78.7959 34.5262C78.927 34.6573 79.0319 34.7884 79.1368 34.9458C79.1368 34.9458 79.504 35.5752 79.6089 35.8899C79.6089 35.8899 84.3557 47.403 83.9361 49.4487C83.8837 49.5536 83.8575 49.6847 83.7526 49.6847Z" fill="#F37021"/>
<path d="M78.927 34.7363C78.6385 34.4216 78.4812 34.4479 78.3763 34.4479C77.3535 34.6052 76.9601 37.6212 76.9601 37.6212C76.5142 39.9815 76.2258 46.6428 76.2258 49.685H75.0718C73.8392 49.685 73 48.872 73 47.4821C73 43.7842 73.7343 36.3886 74.3375 33.1104H75.0456C76.6454 33.1104 78.114 33.7135 78.927 34.7363Z" fill="#F37021"/>
<path d="M90.912 34.6577C89.863 33.7135 88.2632 37.6474 88.2632 37.6474C88.0534 38.1719 87.7387 38.8538 87.5026 39.6143L85.1948 46.7215C84.8014 47.9017 84.0408 49.7113 83.7786 49.685C81.9952 50.262 80.8151 48.3213 80.8151 48.2164C81.2871 48.5049 81.6805 47.9017 82.0477 47.0887C82.5197 46.0397 83.0705 44.7808 83.3327 43.8629L85.2472 37.9883C85.9815 35.7329 86.847 34.1856 87.5289 33.4251C87.7124 33.2153 87.9747 33.1104 88.237 33.1104C89.1286 33.1104 90.335 33.5562 90.912 34.6577Z" fill="#F37021"/>
<path d="M118.816 49.9208H117.269C114.122 49.9208 110.529 48.7145 110.529 45.9345V32.4807C111.421 32.1398 115.276 31.7988 116.692 31.7988H118.633C122.908 31.7988 127.392 34.5525 127.392 40.532C127.366 45.9345 123.668 49.9208 118.816 49.9208ZM118.056 34.8148H117.243C116.771 34.8148 115.827 34.9984 115.827 34.9984V45.2789C115.827 46.3279 116.325 46.8 117.689 46.8H118.318C121.387 46.8 123.563 44.2823 123.563 41.0565C123.563 37.0178 121.255 34.8148 118.056 34.8148Z" fill="#F37021"/>
<path d="M108.378 34.1855V34.1331C108.378 32.6906 107.146 31.8252 106.202 31.8252H103.448V34.3166V46.0133C103.448 48.1114 105.389 49.2916 107.618 49.7374C108.011 49.8161 108.378 49.5014 108.378 49.108V44.23V34.1855Z" fill="#F37021"/>
<path opacity="0.45" d="M79.0318 34.8932C79.0056 34.8932 78.7958 34.4212 78.2713 34.6834C77.8254 34.9194 77.3009 36.8339 77.3534 38.5911L76.9862 37.6732C76.9862 37.6732 77.196 36.0209 77.6943 35.1293C78.1926 34.2113 78.6909 34.3949 79.0318 34.8932Z" fill="#F37021"/>
<path opacity="0.45" d="M91.279 35.523C91.2528 35.523 91.0168 34.6051 90.4398 34.71C89.9415 34.7887 88.8925 36.913 88.4204 38.5652L88.2631 37.6735C88.2631 37.6735 89.1023 35.6541 89.8366 34.946C90.5972 34.2642 90.9119 34.5264 91.279 35.523Z" fill="#F37021"/>
<path opacity="0.45" d="M82.7032 44.2559L82.9393 44.9377C82.9393 44.9377 82.205 46.7211 81.8902 47.3505C81.8116 47.5079 81.6018 47.9275 81.628 47.8226C81.7853 47.3767 82.7032 44.2559 82.7032 44.2559Z" fill="#F37021"/>
<line x1="151.009" y1="25" x2="151.009" y2="56.2755" stroke="#F37021"/>
<path d="M67.544 122H71.624L64.112 105.2H60.272L52.784 122H56.768L58.256 118.4H66.056L67.544 122ZM59.504 115.448L62.168 109.016L64.832 115.448H59.504ZM76.679 110.792V109.088H73.103V122H76.847V115.904C76.847 113.432 78.215 112.304 80.279 112.304C80.567 112.304 80.807 112.328 81.119 112.352V108.896C79.127 108.896 77.591 109.544 76.679 110.792ZM95.876 115.592C95.876 111.44 92.948 108.896 89.156 108.896C85.22 108.896 82.268 111.68 82.268 115.544C82.268 119.384 85.172 122.192 89.636 122.192C91.964 122.192 93.764 121.472 94.964 120.104L92.972 117.944C92.084 118.784 91.1 119.192 89.732 119.192C87.764 119.192 86.396 118.208 86.036 116.6H95.804C95.828 116.288 95.876 115.88 95.876 115.592ZM89.18 111.728C90.86 111.728 92.084 112.784 92.348 114.416H85.988C86.252 112.76 87.476 111.728 89.18 111.728ZM114.382 109.088L110.734 117.848L107.11 109.088H103.245L108.838 122.096L108.79 122.216C108.286 123.368 107.71 123.824 106.678 123.824C105.934 123.824 105.142 123.512 104.566 123.008L103.197 125.672C104.038 126.416 105.478 126.848 106.798 126.848C109.126 126.848 110.902 125.912 112.15 122.792L117.982 109.088H114.382ZM125.302 122.192C129.406 122.192 132.382 119.432 132.382 115.544C132.382 111.656 129.406 108.896 125.302 108.896C121.198 108.896 118.198 111.656 118.198 115.544C118.198 119.432 121.198 122.192 125.302 122.192ZM125.302 119.12C123.43 119.12 121.99 117.776 121.99 115.544C121.99 113.312 123.43 111.968 125.302 111.968C127.174 111.968 128.59 113.312 128.59 115.544C128.59 117.776 127.174 119.12 125.302 119.12ZM144.148 109.088V115.472C144.148 117.848 142.9 118.952 141.172 118.952C139.516 118.952 138.556 117.992 138.556 115.832V109.088H134.812V116.384C134.812 120.368 137.092 122.192 140.332 122.192C141.916 122.192 143.356 121.592 144.34 120.464V122H147.892V109.088H144.148ZM162.502 122.192C166.366 122.192 168.598 120.488 168.598 118.088C168.598 113 160.798 115.136 160.798 112.928C160.798 112.256 161.518 111.728 163.198 111.728C164.374 111.728 165.646 111.968 166.918 112.688L168.166 110.024C166.942 109.304 164.974 108.896 163.198 108.896C159.43 108.896 157.222 110.624 157.222 113.072C157.222 118.232 165.022 116.072 165.022 118.184C165.022 118.904 164.374 119.36 162.646 119.36C161.062 119.36 159.31 118.856 158.158 118.112L156.91 120.8C158.11 121.592 160.318 122.192 162.502 122.192ZM180.172 109.088V115.472C180.172 117.848 178.924 118.952 177.196 118.952C175.54 118.952 174.58 117.992 174.58 115.832V109.088H170.836V116.384C170.836 120.368 173.116 122.192 176.356 122.192C177.94 122.192 179.38 121.592 180.364 120.464V122H183.916V109.088H180.172ZM190.96 110.792V109.088H187.384V122H191.128V115.904C191.128 113.432 192.496 112.304 194.56 112.304C194.848 112.304 195.088 112.328 195.4 112.352V108.896C193.408 108.896 191.872 109.544 190.96 110.792ZM210.157 115.592C210.157 111.44 207.229 108.896 203.437 108.896C199.501 108.896 196.549 111.68 196.549 115.544C196.549 119.384 199.453 122.192 203.917 122.192C206.245 122.192 208.045 121.472 209.245 120.104L207.253 117.944C206.365 118.784 205.381 119.192 204.013 119.192C202.045 119.192 200.677 118.208 200.317 116.6H210.085C210.109 116.288 210.157 115.88 210.157 115.592ZM203.461 111.728C205.141 111.728 206.365 112.784 206.629 114.416H200.269C200.533 112.76 201.757 111.728 203.461 111.728ZM226.767 118.736C226.359 119.048 225.807 119.216 225.255 119.216C224.247 119.216 223.647 118.616 223.647 117.512V112.256H226.863V109.376H223.647V106.232H219.903V109.376H217.911V112.256H219.903V117.56C219.903 120.632 221.679 122.192 224.727 122.192C225.879 122.192 227.007 121.928 227.775 121.376L226.767 118.736ZM235.622 122.192C239.726 122.192 242.702 119.432 242.702 115.544C242.702 111.656 239.726 108.896 235.622 108.896C231.518 108.896 228.518 111.656 228.518 115.544C228.518 119.432 231.518 122.192 235.622 122.192ZM235.622 119.12C233.75 119.12 232.31 117.776 232.31 115.544C232.31 113.312 233.75 111.968 235.622 111.968C237.494 111.968 238.91 113.312 238.91 115.544C238.91 117.776 237.494 119.12 235.622 119.12ZM261.529 109.088V110.576C260.593 109.448 259.225 108.896 257.497 108.896C253.849 108.896 251.041 111.488 251.041 115.544C251.041 119.6 253.849 122.192 257.497 122.192C259.081 122.192 260.425 121.688 261.361 120.632V126.656H265.105V109.088H261.529ZM258.145 119.12C256.273 119.12 254.833 117.776 254.833 115.544C254.833 113.312 256.273 111.968 258.145 111.968C259.993 111.968 261.433 113.312 261.433 115.544C261.433 117.776 259.993 119.12 258.145 119.12ZM277.836 109.088V115.472C277.836 117.848 276.588 118.952 274.86 118.952C273.204 118.952 272.244 117.992 272.244 115.832V109.088H268.5V116.384C268.5 120.368 270.78 122.192 274.02 122.192C275.604 122.192 277.044 121.592 278.028 120.464V122H281.58V109.088H277.836ZM286.92 107.288C288.312 107.288 289.248 106.376 289.248 105.128C289.248 103.976 288.312 103.112 286.92 103.112C285.528 103.112 284.592 104.024 284.592 105.2C284.592 106.376 285.528 107.288 286.92 107.288ZM285.048 122H288.792V109.088H285.048V122ZM299.587 118.736C299.179 119.048 298.627 119.216 298.075 119.216C297.067 119.216 296.467 118.616 296.467 117.512V112.256H299.683V109.376H296.467V106.232H292.723V109.376H290.731V112.256H292.723V117.56C292.723 120.632 294.499 122.192 297.547 122.192C298.699 122.192 299.827 121.928 300.595 121.376L299.587 118.736ZM305.849 116.168H309.473C309.473 113.624 313.505 113.192 313.505 109.352C313.505 106.52 311.009 104.912 307.409 104.912C304.169 104.912 301.913 106.16 300.617 108.128L303.521 109.832C304.289 108.728 305.465 108.056 307.001 108.056C308.561 108.056 309.593 108.8 309.593 109.976C309.593 112.064 305.849 112.808 305.849 116.168ZM307.673 122.192C309.017 122.192 309.977 121.208 309.977 120.008C309.977 118.784 309.017 117.872 307.673 117.872C306.329 117.872 305.369 118.784 305.369 120.008C305.369 121.208 306.329 122.192 307.673 122.192Z" fill="#F93500"/>
<path d="M54.0745 165.612V169H52.6885V165.584L48.7965 159.2H50.2945L53.4305 164.366L56.5805 159.2H57.9665L54.0745 165.612ZM61.535 169.084C60.7977 169.084 60.135 168.921 59.547 168.594C58.959 168.267 58.497 167.819 58.161 167.25C57.8343 166.671 57.671 166.018 57.671 165.29C57.671 164.562 57.8343 163.913 58.161 163.344C58.497 162.765 58.959 162.317 59.547 162C60.135 161.673 60.7977 161.51 61.535 161.51C62.2723 161.51 62.9303 161.673 63.509 162C64.097 162.317 64.5543 162.765 64.881 163.344C65.217 163.913 65.385 164.562 65.385 165.29C65.385 166.018 65.217 166.671 64.881 167.25C64.5543 167.819 64.097 168.267 63.509 168.594C62.9303 168.921 62.2723 169.084 61.535 169.084ZM61.535 167.908C62.011 167.908 62.4357 167.801 62.809 167.586C63.1917 167.362 63.4903 167.054 63.705 166.662C63.9197 166.261 64.027 165.803 64.027 165.29C64.027 164.777 63.9197 164.324 63.705 163.932C63.4903 163.531 63.1917 163.223 62.809 163.008C62.4357 162.793 62.011 162.686 61.535 162.686C61.059 162.686 60.6297 162.793 60.247 163.008C59.8737 163.223 59.575 163.531 59.351 163.932C59.1363 164.324 59.029 164.777 59.029 165.29C59.029 165.803 59.1363 166.261 59.351 166.662C59.575 167.054 59.8737 167.362 60.247 167.586C60.6297 167.801 61.059 167.908 61.535 167.908ZM74.1597 161.58V169H72.8857V167.88C72.6151 168.263 72.2557 168.561 71.8077 168.776C71.3691 168.981 70.8884 169.084 70.3657 169.084C69.3764 169.084 68.5971 168.813 68.0277 168.272C67.4584 167.721 67.1737 166.914 67.1737 165.85V161.58H68.5177V165.696C68.5177 166.415 68.6904 166.961 69.0357 167.334C69.3811 167.698 69.8757 167.88 70.5197 167.88C71.2291 167.88 71.7891 167.665 72.1997 167.236C72.6104 166.807 72.8157 166.2 72.8157 165.416V161.58H74.1597ZM83.1801 161.51C84.2068 161.51 84.9908 161.762 85.5321 162.266C86.0828 162.77 86.3581 163.521 86.3581 164.52V169H85.0841V168.02C84.8601 168.365 84.5381 168.631 84.1181 168.818C83.7074 168.995 83.2174 169.084 82.6481 169.084C81.8174 169.084 81.1501 168.883 80.6461 168.482C80.1514 168.081 79.9041 167.553 79.9041 166.9C79.9041 166.247 80.1421 165.724 80.6181 165.332C81.0941 164.931 81.8501 164.73 82.8861 164.73H85.0141V164.464C85.0141 163.885 84.8461 163.442 84.5101 163.134C84.1741 162.826 83.6794 162.672 83.0261 162.672C82.5874 162.672 82.1581 162.747 81.7381 162.896C81.3181 163.036 80.9634 163.227 80.6741 163.47L80.1141 162.462C80.4968 162.154 80.9541 161.921 81.4861 161.762C82.0181 161.594 82.5828 161.51 83.1801 161.51ZM82.8721 168.048C83.3854 168.048 83.8288 167.936 84.2021 167.712C84.5754 167.479 84.8461 167.152 85.0141 166.732V165.696H82.9421C81.8034 165.696 81.2341 166.079 81.2341 166.844C81.2341 167.217 81.3788 167.511 81.6681 167.726C81.9574 167.941 82.3588 168.048 82.8721 168.048ZM90.1333 162.826C90.3666 162.397 90.712 162.07 91.1693 161.846C91.6266 161.622 92.182 161.51 92.8353 161.51V162.812C92.7606 162.803 92.658 162.798 92.5273 162.798C91.7993 162.798 91.2253 163.017 90.8053 163.456C90.3946 163.885 90.1893 164.501 90.1893 165.304V169H88.8453V161.58H90.1333V162.826ZM101.129 165.332C101.129 165.435 101.12 165.57 101.101 165.738H95.0814C95.1654 166.391 95.4501 166.919 95.9354 167.32C96.4301 167.712 97.0414 167.908 97.7694 167.908C98.6561 167.908 99.3701 167.609 99.9114 167.012L100.653 167.88C100.317 168.272 99.8974 168.571 99.3934 168.776C98.8987 168.981 98.3434 169.084 97.7274 169.084C96.9434 169.084 96.2481 168.925 95.6414 168.608C95.0347 168.281 94.5634 167.829 94.2274 167.25C93.9007 166.671 93.7374 166.018 93.7374 165.29C93.7374 164.571 93.8961 163.923 94.2134 163.344C94.5401 162.765 94.9834 162.317 95.5434 162C96.1127 161.673 96.7521 161.51 97.4614 161.51C98.1707 161.51 98.8007 161.673 99.3514 162C99.9114 162.317 100.345 162.765 100.653 163.344C100.971 163.923 101.129 164.585 101.129 165.332ZM97.4614 162.644C96.8174 162.644 96.2761 162.84 95.8374 163.232C95.4081 163.624 95.1561 164.137 95.0814 164.772H99.8414C99.7667 164.147 99.5101 163.638 99.0714 163.246C98.6421 162.845 98.1054 162.644 97.4614 162.644ZM106.755 161.58H108.099V169H106.755V161.58ZM107.427 160.152C107.166 160.152 106.947 160.068 106.769 159.9C106.601 159.732 106.517 159.527 106.517 159.284C106.517 159.041 106.601 158.836 106.769 158.668C106.947 158.491 107.166 158.402 107.427 158.402C107.689 158.402 107.903 158.486 108.071 158.654C108.249 158.813 108.337 159.013 108.337 159.256C108.337 159.508 108.249 159.723 108.071 159.9C107.903 160.068 107.689 160.152 107.427 160.152ZM114.628 161.51C115.57 161.51 116.317 161.785 116.868 162.336C117.428 162.877 117.708 163.675 117.708 164.73V169H116.364V164.884C116.364 164.165 116.191 163.624 115.846 163.26C115.5 162.896 115.006 162.714 114.362 162.714C113.634 162.714 113.06 162.929 112.64 163.358C112.22 163.778 112.01 164.385 112.01 165.178V169H110.666V161.58H111.954V162.7C112.224 162.317 112.588 162.023 113.046 161.818C113.512 161.613 114.04 161.51 114.628 161.51ZM128.127 168.566C127.931 168.734 127.688 168.865 127.399 168.958C127.109 169.042 126.811 169.084 126.503 169.084C125.756 169.084 125.177 168.883 124.767 168.482C124.356 168.081 124.151 167.507 124.151 166.76V162.686H122.891V161.58H124.151V159.956H125.495V161.58H127.623V162.686H125.495V166.704C125.495 167.105 125.593 167.413 125.789 167.628C125.994 167.843 126.283 167.95 126.657 167.95C127.067 167.95 127.417 167.833 127.707 167.6L128.127 168.566ZM133.714 161.51C134.656 161.51 135.403 161.785 135.954 162.336C136.514 162.877 136.794 163.675 136.794 164.73V169H135.45V164.884C135.45 164.165 135.277 163.624 134.932 163.26C134.586 162.896 134.092 162.714 133.448 162.714C132.72 162.714 132.146 162.929 131.726 163.358C131.306 163.778 131.096 164.385 131.096 165.178V169H129.752V158.612H131.096V162.63C131.376 162.275 131.74 162 132.188 161.804C132.645 161.608 133.154 161.51 133.714 161.51ZM146.028 165.332C146.028 165.435 146.019 165.57 146 165.738H139.98C140.064 166.391 140.349 166.919 140.834 167.32C141.329 167.712 141.94 167.908 142.668 167.908C143.555 167.908 144.269 167.609 144.81 167.012L145.552 167.88C145.216 168.272 144.796 168.571 144.292 168.776C143.797 168.981 143.242 169.084 142.626 169.084C141.842 169.084 141.147 168.925 140.54 168.608C139.933 168.281 139.462 167.829 139.126 167.25C138.799 166.671 138.636 166.018 138.636 165.29C138.636 164.571 138.795 163.923 139.112 163.344C139.439 162.765 139.882 162.317 140.442 162C141.011 161.673 141.651 161.51 142.36 161.51C143.069 161.51 143.699 161.673 144.25 162C144.81 162.317 145.244 162.765 145.552 163.344C145.869 163.923 146.028 164.585 146.028 165.332ZM142.36 162.644C141.716 162.644 141.175 162.84 140.736 163.232C140.307 163.624 140.055 164.137 139.98 164.772H144.74C144.665 164.147 144.409 163.638 143.97 163.246C143.541 162.845 143.004 162.644 142.36 162.644ZM160.936 161.51C161.869 161.51 162.607 161.781 163.148 162.322C163.699 162.863 163.974 163.666 163.974 164.73V169H162.63V164.884C162.63 164.165 162.462 163.624 162.126 163.26C161.799 162.896 161.328 162.714 160.712 162.714C160.031 162.714 159.489 162.929 159.088 163.358C158.687 163.778 158.486 164.385 158.486 165.178V169H157.142V164.884C157.142 164.165 156.974 163.624 156.638 163.26C156.311 162.896 155.84 162.714 155.224 162.714C154.543 162.714 154.001 162.929 153.6 163.358C153.199 163.778 152.998 164.385 152.998 165.178V169H151.654V161.58H152.942V162.686C153.213 162.303 153.567 162.014 154.006 161.818C154.445 161.613 154.944 161.51 155.504 161.51C156.083 161.51 156.596 161.627 157.044 161.86C157.492 162.093 157.837 162.434 158.08 162.882C158.36 162.453 158.747 162.117 159.242 161.874C159.746 161.631 160.311 161.51 160.936 161.51ZM166.447 161.58H167.791V169H166.447V161.58ZM167.119 160.152C166.858 160.152 166.638 160.068 166.461 159.9C166.293 159.732 166.209 159.527 166.209 159.284C166.209 159.041 166.293 158.836 166.461 158.668C166.638 158.491 166.858 158.402 167.119 158.402C167.38 158.402 167.595 158.486 167.763 158.654C167.94 158.813 168.029 159.013 168.029 159.256C168.029 159.508 167.94 159.723 167.763 159.9C167.595 160.068 167.38 160.152 167.119 160.152ZM177.357 158.612V169H176.069V167.824C175.77 168.235 175.392 168.547 174.935 168.762C174.478 168.977 173.974 169.084 173.423 169.084C172.704 169.084 172.06 168.925 171.491 168.608C170.922 168.291 170.474 167.847 170.147 167.278C169.83 166.699 169.671 166.037 169.671 165.29C169.671 164.543 169.83 163.885 170.147 163.316C170.474 162.747 170.922 162.303 171.491 161.986C172.06 161.669 172.704 161.51 173.423 161.51C173.955 161.51 174.445 161.613 174.893 161.818C175.341 162.014 175.714 162.308 176.013 162.7V158.612H177.357ZM173.535 167.908C174.002 167.908 174.426 167.801 174.809 167.586C175.192 167.362 175.49 167.054 175.705 166.662C175.92 166.261 176.027 165.803 176.027 165.29C176.027 164.777 175.92 164.324 175.705 163.932C175.49 163.531 175.192 163.223 174.809 163.008C174.426 162.793 174.002 162.686 173.535 162.686C173.059 162.686 172.63 162.793 172.247 163.008C171.874 163.223 171.575 163.531 171.351 163.932C171.136 164.324 171.029 164.777 171.029 165.29C171.029 165.803 171.136 166.261 171.351 166.662C171.575 167.054 171.874 167.362 172.247 167.586C172.63 167.801 173.059 167.908 173.535 167.908ZM186.9 158.612V169H185.612V167.824C185.313 168.235 184.935 168.547 184.478 168.762C184.021 168.977 183.517 169.084 182.966 169.084C182.247 169.084 181.603 168.925 181.034 168.608C180.465 168.291 180.017 167.847 179.69 167.278C179.373 166.699 179.214 166.037 179.214 165.29C179.214 164.543 179.373 163.885 179.69 163.316C180.017 162.747 180.465 162.303 181.034 161.986C181.603 161.669 182.247 161.51 182.966 161.51C183.498 161.51 183.988 161.613 184.436 161.818C184.884 162.014 185.257 162.308 185.556 162.7V158.612H186.9ZM183.078 167.908C183.545 167.908 183.969 167.801 184.352 167.586C184.735 167.362 185.033 167.054 185.248 166.662C185.463 166.261 185.57 165.803 185.57 165.29C185.57 164.777 185.463 164.324 185.248 163.932C185.033 163.531 184.735 163.223 184.352 163.008C183.969 162.793 183.545 162.686 183.078 162.686C182.602 162.686 182.173 162.793 181.79 163.008C181.417 163.223 181.118 163.531 180.894 163.932C180.679 164.324 180.572 164.777 180.572 165.29C180.572 165.803 180.679 166.261 180.894 166.662C181.118 167.054 181.417 167.362 181.79 167.586C182.173 167.801 182.602 167.908 183.078 167.908ZM189.443 158.612H190.787V169H189.443V158.612ZM200.059 165.332C200.059 165.435 200.05 165.57 200.031 165.738H194.011C194.095 166.391 194.38 166.919 194.865 167.32C195.36 167.712 195.971 167.908 196.699 167.908C197.586 167.908 198.3 167.609 198.841 167.012L199.583 167.88C199.247 168.272 198.827 168.571 198.323 168.776C197.828 168.981 197.273 169.084 196.657 169.084C195.873 169.084 195.178 168.925 194.571 168.608C193.964 168.281 193.493 167.829 193.157 167.25C192.83 166.671 192.667 166.018 192.667 165.29C192.667 164.571 192.826 163.923 193.143 163.344C193.47 162.765 193.913 162.317 194.473 162C195.042 161.673 195.682 161.51 196.391 161.51C197.1 161.51 197.73 161.673 198.281 162C198.841 162.317 199.275 162.765 199.583 163.344C199.9 163.923 200.059 164.585 200.059 165.332ZM196.391 162.644C195.747 162.644 195.206 162.84 194.767 163.232C194.338 163.624 194.086 164.137 194.011 164.772H198.771C198.696 164.147 198.44 163.638 198.001 163.246C197.572 162.845 197.035 162.644 196.391 162.644ZM208.863 169.084C208.126 169.084 207.463 168.921 206.875 168.594C206.287 168.267 205.825 167.819 205.489 167.25C205.162 166.671 204.999 166.018 204.999 165.29C204.999 164.562 205.162 163.913 205.489 163.344C205.825 162.765 206.287 162.317 206.875 162C207.463 161.673 208.126 161.51 208.863 161.51C209.6 161.51 210.258 161.673 210.837 162C211.425 162.317 211.882 162.765 212.209 163.344C212.545 163.913 212.713 164.562 212.713 165.29C212.713 166.018 212.545 166.671 212.209 167.25C211.882 167.819 211.425 168.267 210.837 168.594C210.258 168.921 209.6 169.084 208.863 169.084ZM208.863 167.908C209.339 167.908 209.764 167.801 210.137 167.586C210.52 167.362 210.818 167.054 211.033 166.662C211.248 166.261 211.355 165.803 211.355 165.29C211.355 164.777 211.248 164.324 211.033 163.932C210.818 163.531 210.52 163.223 210.137 163.008C209.764 162.793 209.339 162.686 208.863 162.686C208.387 162.686 207.958 162.793 207.575 163.008C207.202 163.223 206.903 163.531 206.679 163.932C206.464 164.324 206.357 164.777 206.357 165.29C206.357 165.803 206.464 166.261 206.679 166.662C206.903 167.054 207.202 167.362 207.575 167.586C207.958 167.801 208.387 167.908 208.863 167.908ZM217.288 159.634C216.485 159.634 216.084 160.068 216.084 160.936V161.58H218.24V162.686H216.112V169H214.768V162.686H213.508V161.58H214.768V160.922C214.768 160.185 214.983 159.601 215.412 159.172C215.841 158.743 216.443 158.528 217.218 158.528C217.517 158.528 217.797 158.565 218.058 158.64C218.319 158.715 218.543 158.822 218.73 158.962L218.324 159.984C218.016 159.751 217.671 159.634 217.288 159.634ZM225.969 161.51C226.996 161.51 227.78 161.762 228.321 162.266C228.872 162.77 229.147 163.521 229.147 164.52V169H227.873V168.02C227.649 168.365 227.327 168.631 226.907 168.818C226.496 168.995 226.006 169.084 225.437 169.084C224.606 169.084 223.939 168.883 223.435 168.482C222.94 168.081 222.693 167.553 222.693 166.9C222.693 166.247 222.931 165.724 223.407 165.332C223.883 164.931 224.639 164.73 225.675 164.73H227.803V164.464C227.803 163.885 227.635 163.442 227.299 163.134C226.963 162.826 226.468 162.672 225.815 162.672C225.376 162.672 224.947 162.747 224.527 162.896C224.107 163.036 223.752 163.227 223.463 163.47L222.903 162.462C223.286 162.154 223.743 161.921 224.275 161.762C224.807 161.594 225.372 161.51 225.969 161.51ZM225.661 168.048C226.174 168.048 226.618 167.936 226.991 167.712C227.364 167.479 227.635 167.152 227.803 166.732V165.696H225.731C224.592 165.696 224.023 166.079 224.023 166.844C224.023 167.217 224.168 167.511 224.457 167.726C224.746 167.941 225.148 168.048 225.661 168.048ZM242.492 161.58V167.992C242.492 169.289 242.17 170.246 241.526 170.862C240.882 171.487 239.921 171.8 238.642 171.8C237.942 171.8 237.275 171.702 236.64 171.506C236.005 171.319 235.492 171.049 235.1 170.694L235.744 169.658C236.089 169.957 236.514 170.19 237.018 170.358C237.531 170.535 238.059 170.624 238.6 170.624C239.468 170.624 240.107 170.419 240.518 170.008C240.938 169.597 241.148 168.972 241.148 168.132V167.544C240.831 167.927 240.439 168.216 239.972 168.412C239.515 168.599 239.015 168.692 238.474 168.692C237.765 168.692 237.121 168.543 236.542 168.244C235.973 167.936 235.525 167.511 235.198 166.97C234.871 166.419 234.708 165.794 234.708 165.094C234.708 164.394 234.871 163.773 235.198 163.232C235.525 162.681 235.973 162.257 236.542 161.958C237.121 161.659 237.765 161.51 238.474 161.51C239.034 161.51 239.552 161.613 240.028 161.818C240.513 162.023 240.91 162.327 241.218 162.728V161.58H242.492ZM238.628 167.516C239.113 167.516 239.547 167.413 239.93 167.208C240.322 167.003 240.625 166.718 240.84 166.354C241.064 165.981 241.176 165.561 241.176 165.094C241.176 164.375 240.938 163.797 240.462 163.358C239.986 162.91 239.375 162.686 238.628 162.686C237.872 162.686 237.256 162.91 236.78 163.358C236.304 163.797 236.066 164.375 236.066 165.094C236.066 165.561 236.173 165.981 236.388 166.354C236.612 166.718 236.915 167.003 237.298 167.208C237.69 167.413 238.133 167.516 238.628 167.516ZM247.762 161.51C248.789 161.51 249.573 161.762 250.114 162.266C250.665 162.77 250.94 163.521 250.94 164.52V169H249.666V168.02C249.442 168.365 249.12 168.631 248.7 168.818C248.289 168.995 247.799 169.084 247.23 169.084C246.399 169.084 245.732 168.883 245.228 168.482C244.733 168.081 244.486 167.553 244.486 166.9C244.486 166.247 244.724 165.724 245.2 165.332C245.676 164.931 246.432 164.73 247.468 164.73H249.596V164.464C249.596 163.885 249.428 163.442 249.092 163.134C248.756 162.826 248.261 162.672 247.608 162.672C247.169 162.672 246.74 162.747 246.32 162.896C245.9 163.036 245.545 163.227 245.256 163.47L244.696 162.462C245.079 162.154 245.536 161.921 246.068 161.762C246.6 161.594 247.165 161.51 247.762 161.51ZM247.454 168.048C247.967 168.048 248.411 167.936 248.784 167.712C249.157 167.479 249.428 167.152 249.596 166.732V165.696H247.524C246.385 165.696 245.816 166.079 245.816 166.844C245.816 167.217 245.961 167.511 246.25 167.726C246.539 167.941 246.941 168.048 247.454 168.048ZM262.709 161.51C263.643 161.51 264.38 161.781 264.921 162.322C265.472 162.863 265.747 163.666 265.747 164.73V169H264.403V164.884C264.403 164.165 264.235 163.624 263.899 163.26C263.573 162.896 263.101 162.714 262.485 162.714C261.804 162.714 261.263 162.929 260.861 163.358C260.46 163.778 260.259 164.385 260.259 165.178V169H258.915V164.884C258.915 164.165 258.747 163.624 258.411 163.26C258.085 162.896 257.613 162.714 256.997 162.714C256.316 162.714 255.775 162.929 255.373 163.358C254.972 163.778 254.771 164.385 254.771 165.178V169H253.427V161.58H254.715V162.686C254.986 162.303 255.341 162.014 255.779 161.818C256.218 161.613 256.717 161.51 257.277 161.51C257.856 161.51 258.369 161.627 258.817 161.86C259.265 162.093 259.611 162.434 259.853 162.882C260.133 162.453 260.521 162.117 261.015 161.874C261.519 161.631 262.084 161.51 262.709 161.51ZM274.967 165.332C274.967 165.435 274.958 165.57 274.939 165.738H268.919C269.003 166.391 269.288 166.919 269.773 167.32C270.268 167.712 270.879 167.908 271.607 167.908C272.494 167.908 273.208 167.609 273.749 167.012L274.491 167.88C274.155 168.272 273.735 168.571 273.231 168.776C272.737 168.981 272.181 169.084 271.565 169.084C270.781 169.084 270.086 168.925 269.479 168.608C268.873 168.281 268.401 167.829 268.065 167.25C267.739 166.671 267.575 166.018 267.575 165.29C267.575 164.571 267.734 163.923 268.051 163.344C268.378 162.765 268.821 162.317 269.381 162C269.951 161.673 270.59 161.51 271.299 161.51C272.009 161.51 272.639 161.673 273.189 162C273.749 162.317 274.183 162.765 274.491 163.344C274.809 163.923 274.967 164.585 274.967 165.332ZM271.299 162.644C270.655 162.644 270.114 162.84 269.675 163.232C269.246 163.624 268.994 164.137 268.919 164.772H273.679C273.605 164.147 273.348 163.638 272.909 163.246C272.48 162.845 271.943 162.644 271.299 162.644ZM291.821 161.58L289.049 169H287.761L285.619 163.372L283.449 169H282.161L279.403 161.58H280.677L282.833 167.488L285.073 161.58H286.207L288.405 167.516L290.617 161.58H291.821ZM293.185 161.58H294.529V169H293.185V161.58ZM293.857 160.152C293.596 160.152 293.376 160.068 293.199 159.9C293.031 159.732 292.947 159.527 292.947 159.284C292.947 159.041 293.031 158.836 293.199 158.668C293.376 158.491 293.596 158.402 293.857 158.402C294.118 158.402 294.333 158.486 294.501 158.654C294.678 158.813 294.767 159.013 294.767 159.256C294.767 159.508 294.678 159.723 294.501 159.9C294.333 160.068 294.118 160.152 293.857 160.152ZM301.267 168.566C301.071 168.734 300.829 168.865 300.539 168.958C300.25 169.042 299.951 169.084 299.643 169.084C298.897 169.084 298.318 168.883 297.907 168.482C297.497 168.081 297.291 167.507 297.291 166.76V162.686H296.031V161.58H297.291V159.956H298.635V161.58H300.763V162.686H298.635V166.704C298.635 167.105 298.733 167.413 298.929 167.628C299.135 167.843 299.424 167.95 299.797 167.95C300.208 167.95 300.558 167.833 300.847 167.6L301.267 168.566ZM306.854 161.51C307.797 161.51 308.543 161.785 309.094 162.336C309.654 162.877 309.934 163.675 309.934 164.73V169H308.59V164.884C308.59 164.165 308.417 163.624 308.072 163.26C307.727 162.896 307.232 162.714 306.588 162.714C305.86 162.714 305.286 162.929 304.866 163.358C304.446 163.778 304.236 164.385 304.236 165.178V169H302.892V158.612H304.236V162.63C304.516 162.275 304.88 162 305.328 161.804C305.785 161.608 306.294 161.51 306.854 161.51ZM45.3475 193.084C44.6102 193.084 43.9475 192.921 43.3595 192.594C42.7715 192.267 42.3095 191.819 41.9735 191.25C41.6468 190.671 41.4835 190.018 41.4835 189.29C41.4835 188.562 41.6468 187.913 41.9735 187.344C42.3095 186.765 42.7715 186.317 43.3595 186C43.9475 185.673 44.6102 185.51 45.3475 185.51C46.0848 185.51 46.7428 185.673 47.3215 186C47.9095 186.317 48.3668 186.765 48.6935 187.344C49.0295 187.913 49.1975 188.562 49.1975 189.29C49.1975 190.018 49.0295 190.671 48.6935 191.25C48.3668 191.819 47.9095 192.267 47.3215 192.594C46.7428 192.921 46.0848 193.084 45.3475 193.084ZM45.3475 191.908C45.8235 191.908 46.2482 191.801 46.6215 191.586C47.0042 191.362 47.3028 191.054 47.5175 190.662C47.7322 190.261 47.8395 189.803 47.8395 189.29C47.8395 188.777 47.7322 188.324 47.5175 187.932C47.3028 187.531 47.0042 187.223 46.6215 187.008C46.2482 186.793 45.8235 186.686 45.3475 186.686C44.8715 186.686 44.4422 186.793 44.0595 187.008C43.6862 187.223 43.3875 187.531 43.1635 187.932C42.9488 188.324 42.8415 188.777 42.8415 189.29C42.8415 189.803 42.9488 190.261 43.1635 190.662C43.3875 191.054 43.6862 191.362 44.0595 191.586C44.4422 191.801 44.8715 191.908 45.3475 191.908ZM55.2282 192.566C55.0322 192.734 54.7896 192.865 54.5002 192.958C54.2109 193.042 53.9122 193.084 53.6042 193.084C52.8576 193.084 52.2789 192.883 51.8682 192.482C51.4576 192.081 51.2522 191.507 51.2522 190.76V186.686H49.9922V185.58H51.2522V183.956H52.5962V185.58H54.7242V186.686H52.5962V190.704C52.5962 191.105 52.6942 191.413 52.8902 191.628C53.0956 191.843 53.3849 191.95 53.7582 191.95C54.1689 191.95 54.5189 191.833 54.8082 191.6L55.2282 192.566ZM60.8151 185.51C61.7578 185.51 62.5044 185.785 63.0551 186.336C63.6151 186.877 63.8951 187.675 63.8951 188.73V193H62.5511V188.884C62.5511 188.165 62.3784 187.624 62.0331 187.26C61.6878 186.896 61.1931 186.714 60.5491 186.714C59.8211 186.714 59.2471 186.929 58.8271 187.358C58.4071 187.778 58.1971 188.385 58.1971 189.178V193H56.8531V182.612H58.1971V186.63C58.4771 186.275 58.8411 186 59.2891 185.804C59.7464 185.608 60.2551 185.51 60.8151 185.51ZM73.1294 189.332C73.1294 189.435 73.1201 189.57 73.1014 189.738H67.0814C67.1654 190.391 67.4501 190.919 67.9354 191.32C68.4301 191.712 69.0414 191.908 69.7694 191.908C70.6561 191.908 71.3701 191.609 71.9114 191.012L72.6534 191.88C72.3174 192.272 71.8974 192.571 71.3934 192.776C70.8987 192.981 70.3434 193.084 69.7274 193.084C68.9434 193.084 68.2481 192.925 67.6414 192.608C67.0347 192.281 66.5634 191.829 66.2274 191.25C65.9007 190.671 65.7374 190.018 65.7374 189.29C65.7374 188.571 65.8961 187.923 66.2134 187.344C66.5401 186.765 66.9834 186.317 67.5434 186C68.1127 185.673 68.7521 185.51 69.4614 185.51C70.1707 185.51 70.8007 185.673 71.3514 186C71.9114 186.317 72.3454 186.765 72.6534 187.344C72.9707 187.923 73.1294 188.585 73.1294 189.332ZM69.4614 186.644C68.8174 186.644 68.2761 186.84 67.8374 187.232C67.4081 187.624 67.1561 188.137 67.0814 188.772H71.8414C71.7667 188.147 71.5101 187.638 71.0714 187.246C70.6421 186.845 70.1054 186.644 69.4614 186.644ZM76.2837 186.826C76.517 186.397 76.8623 186.07 77.3197 185.846C77.777 185.622 78.3323 185.51 78.9857 185.51V186.812C78.911 186.803 78.8083 186.798 78.6777 186.798C77.9497 186.798 77.3757 187.017 76.9557 187.456C76.545 187.885 76.3397 188.501 76.3397 189.304V193H74.9957V185.58H76.2837V186.826ZM88.4316 185.51C89.1503 185.51 89.7943 185.669 90.3636 185.986C90.933 186.303 91.3763 186.747 91.6936 187.316C92.0203 187.885 92.1836 188.543 92.1836 189.29C92.1836 190.037 92.0203 190.699 91.6936 191.278C91.3763 191.847 90.933 192.291 90.3636 192.608C89.7943 192.925 89.1503 193.084 88.4316 193.084C87.8996 193.084 87.4096 192.981 86.9616 192.776C86.523 192.571 86.1496 192.272 85.8416 191.88V195.716H84.4976V185.58H85.7856V186.756C86.0843 186.345 86.4623 186.037 86.9196 185.832C87.377 185.617 87.881 185.51 88.4316 185.51ZM88.3196 191.908C88.7956 191.908 89.2203 191.801 89.5936 191.586C89.9763 191.362 90.275 191.054 90.4896 190.662C90.7136 190.261 90.8256 189.803 90.8256 189.29C90.8256 188.777 90.7136 188.324 90.4896 187.932C90.275 187.531 89.9763 187.223 89.5936 187.008C89.2203 186.793 88.7956 186.686 88.3196 186.686C87.853 186.686 87.4283 186.798 87.0456 187.022C86.6723 187.237 86.3736 187.54 86.1496 187.932C85.935 188.324 85.8276 188.777 85.8276 189.29C85.8276 189.803 85.935 190.261 86.1496 190.662C86.3643 191.054 86.663 191.362 87.0456 191.586C87.4283 191.801 87.853 191.908 88.3196 191.908ZM94.0406 182.612H95.3846V193H94.0406V182.612ZM100.653 185.51C101.679 185.51 102.463 185.762 103.005 186.266C103.555 186.77 103.831 187.521 103.831 188.52V193H102.557V192.02C102.333 192.365 102.011 192.631 101.591 192.818C101.18 192.995 100.69 193.084 100.121 193.084C99.2901 193.084 98.6228 192.883 98.1188 192.482C97.6241 192.081 97.3768 191.553 97.3768 190.9C97.3768 190.247 97.6148 189.724 98.0908 189.332C98.5668 188.931 99.3228 188.73 100.359 188.73H102.487V188.464C102.487 187.885 102.319 187.442 101.983 187.134C101.647 186.826 101.152 186.672 100.499 186.672C100.06 186.672 99.6308 186.747 99.2108 186.896C98.7908 187.036 98.4361 187.227 98.1468 187.47L97.5868 186.462C97.9694 186.154 98.4268 185.921 98.9588 185.762C99.4908 185.594 100.055 185.51 100.653 185.51ZM100.345 192.048C100.858 192.048 101.301 191.936 101.675 191.712C102.048 191.479 102.319 191.152 102.487 190.732V189.696H100.415C99.2761 189.696 98.7068 190.079 98.7068 190.844C98.7068 191.217 98.8514 191.511 99.1408 191.726C99.4301 191.941 99.8314 192.048 100.345 192.048ZM112.747 185.58L109.149 193.742C108.832 194.498 108.459 195.03 108.029 195.338C107.609 195.646 107.101 195.8 106.503 195.8C106.139 195.8 105.785 195.739 105.439 195.618C105.103 195.506 104.823 195.338 104.599 195.114L105.173 194.106C105.556 194.47 105.999 194.652 106.503 194.652C106.83 194.652 107.101 194.563 107.315 194.386C107.539 194.218 107.74 193.924 107.917 193.504L108.155 192.986L104.879 185.58H106.279L108.869 191.516L111.431 185.58H112.747ZM120.502 189.332C120.502 189.435 120.493 189.57 120.474 189.738H114.454C114.538 190.391 114.823 190.919 115.308 191.32C115.803 191.712 116.414 191.908 117.142 191.908C118.029 191.908 118.743 191.609 119.284 191.012L120.026 191.88C119.69 192.272 119.27 192.571 118.766 192.776C118.272 192.981 117.716 193.084 117.1 193.084C116.316 193.084 115.621 192.925 115.014 192.608C114.408 192.281 113.936 191.829 113.6 191.25C113.274 190.671 113.11 190.018 113.11 189.29C113.11 188.571 113.269 187.923 113.586 187.344C113.913 186.765 114.356 186.317 114.916 186C115.486 185.673 116.125 185.51 116.834 185.51C117.544 185.51 118.174 185.673 118.724 186C119.284 186.317 119.718 186.765 120.026 187.344C120.344 187.923 120.502 188.585 120.502 189.332ZM116.834 186.644C116.19 186.644 115.649 186.84 115.21 187.232C114.781 187.624 114.529 188.137 114.454 188.772H119.214C119.14 188.147 118.883 187.638 118.444 187.246C118.015 186.845 117.478 186.644 116.834 186.644ZM123.657 186.826C123.89 186.397 124.235 186.07 124.693 185.846C125.15 185.622 125.705 185.51 126.359 185.51V186.812C126.284 186.803 126.181 186.798 126.051 186.798C125.323 186.798 124.749 187.017 124.329 187.456C123.918 187.885 123.713 188.501 123.713 189.304V193H122.369V185.58H123.657V186.826ZM128.296 193.084C128.035 193.084 127.811 192.995 127.624 192.818C127.438 192.631 127.344 192.398 127.344 192.118C127.344 191.847 127.438 191.623 127.624 191.446C127.811 191.259 128.035 191.166 128.296 191.166C128.558 191.166 128.777 191.255 128.954 191.432C129.132 191.609 129.22 191.838 129.22 192.118C129.22 192.398 129.127 192.631 128.94 192.818C128.763 192.995 128.548 193.084 128.296 193.084ZM141.696 187.918C142.265 188.077 142.713 188.366 143.04 188.786C143.367 189.197 143.53 189.719 143.53 190.354C143.53 191.203 143.208 191.857 142.564 192.314C141.929 192.771 141.001 193 139.778 193H135.102V183.2H139.498C140.618 183.2 141.481 183.424 142.088 183.872C142.704 184.32 143.012 184.941 143.012 185.734C143.012 186.247 142.891 186.691 142.648 187.064C142.415 187.437 142.097 187.722 141.696 187.918ZM136.502 184.334V187.47H139.372C140.091 187.47 140.641 187.339 141.024 187.078C141.416 186.807 141.612 186.415 141.612 185.902C141.612 185.389 141.416 185.001 141.024 184.74C140.641 184.469 140.091 184.334 139.372 184.334H136.502ZM139.722 191.866C140.515 191.866 141.113 191.735 141.514 191.474C141.915 191.213 142.116 190.802 142.116 190.242C142.116 189.15 141.318 188.604 139.722 188.604H136.502V191.866H139.722ZM152.068 185.58L148.47 193.742C148.152 194.498 147.779 195.03 147.35 195.338C146.93 195.646 146.421 195.8 145.824 195.8C145.46 195.8 145.105 195.739 144.76 195.618C144.424 195.506 144.144 195.338 143.92 195.114L144.494 194.106C144.876 194.47 145.32 194.652 145.824 194.652C146.15 194.652 146.421 194.563 146.636 194.386C146.86 194.218 147.06 193.924 147.238 193.504L147.476 192.986L144.2 185.58H145.6L148.19 191.516L150.752 185.58H152.068ZM164.082 185.58V195.716H162.738V191.88C162.43 192.272 162.052 192.571 161.604 192.776C161.165 192.981 160.68 193.084 160.148 193.084C159.429 193.084 158.785 192.925 158.216 192.608C157.646 192.291 157.198 191.847 156.872 191.278C156.554 190.699 156.396 190.037 156.396 189.29C156.396 188.543 156.554 187.885 156.872 187.316C157.198 186.747 157.646 186.303 158.216 185.986C158.785 185.669 159.429 185.51 160.148 185.51C160.698 185.51 161.202 185.617 161.66 185.832C162.117 186.037 162.495 186.345 162.794 186.756V185.58H164.082ZM160.26 191.908C160.726 191.908 161.151 191.801 161.534 191.586C161.916 191.362 162.215 191.054 162.43 190.662C162.644 190.261 162.752 189.803 162.752 189.29C162.752 188.777 162.64 188.324 162.416 187.932C162.201 187.54 161.902 187.237 161.52 187.022C161.146 186.798 160.726 186.686 160.26 186.686C159.784 186.686 159.354 186.793 158.972 187.008C158.598 187.223 158.3 187.531 158.076 187.932C157.861 188.324 157.754 188.777 157.754 189.29C157.754 189.803 157.861 190.261 158.076 190.662C158.3 191.054 158.598 191.362 158.972 191.586C159.354 191.801 159.784 191.908 160.26 191.908ZM173.541 185.58V193H172.267V191.88C171.996 192.263 171.637 192.561 171.189 192.776C170.75 192.981 170.269 193.084 169.747 193.084C168.757 193.084 167.978 192.813 167.409 192.272C166.839 191.721 166.555 190.914 166.555 189.85V185.58H167.899V189.696C167.899 190.415 168.071 190.961 168.417 191.334C168.762 191.698 169.257 191.88 169.901 191.88C170.61 191.88 171.17 191.665 171.581 191.236C171.991 190.807 172.197 190.2 172.197 189.416V185.58H173.541ZM176.099 185.58H177.443V193H176.099V185.58ZM176.771 184.152C176.51 184.152 176.291 184.068 176.113 183.9C175.945 183.732 175.861 183.527 175.861 183.284C175.861 183.041 175.945 182.836 176.113 182.668C176.291 182.491 176.51 182.402 176.771 182.402C177.033 182.402 177.247 182.486 177.415 182.654C177.593 182.813 177.681 183.013 177.681 183.256C177.681 183.508 177.593 183.723 177.415 183.9C177.247 184.068 177.033 184.152 176.771 184.152ZM184.181 192.566C183.985 192.734 183.743 192.865 183.453 192.958C183.164 193.042 182.865 193.084 182.557 193.084C181.811 193.084 181.232 192.883 180.821 192.482C180.411 192.081 180.205 191.507 180.205 190.76V186.686H178.945V185.58H180.205V183.956H181.549V185.58H183.677V186.686H181.549V190.704C181.549 191.105 181.647 191.413 181.843 191.628C182.049 191.843 182.338 191.95 182.711 191.95C183.122 191.95 183.472 191.833 183.761 191.6L184.181 192.566ZM189.8 192.566C189.604 192.734 189.362 192.865 189.072 192.958C188.783 193.042 188.484 193.084 188.176 193.084C187.43 193.084 186.851 192.883 186.44 192.482C186.03 192.081 185.824 191.507 185.824 190.76V186.686H184.564V185.58H185.824V183.956H187.168V185.58H189.296V186.686H187.168V190.704C187.168 191.105 187.266 191.413 187.462 191.628C187.668 191.843 187.957 191.95 188.33 191.95C188.741 191.95 189.091 191.833 189.38 191.6L189.8 192.566ZM191.425 185.58H192.769V193H191.425V185.58ZM192.097 184.152C191.836 184.152 191.617 184.068 191.439 183.9C191.271 183.732 191.187 183.527 191.187 183.284C191.187 183.041 191.271 182.836 191.439 182.668C191.617 182.491 191.836 182.402 192.097 182.402C192.359 182.402 192.573 182.486 192.741 182.654C192.919 182.813 193.007 183.013 193.007 183.256C193.007 183.508 192.919 183.723 192.741 183.9C192.573 184.068 192.359 184.152 192.097 184.152ZM199.298 185.51C200.24 185.51 200.987 185.785 201.538 186.336C202.098 186.877 202.378 187.675 202.378 188.73V193H201.034V188.884C201.034 188.165 200.861 187.624 200.516 187.26C200.17 186.896 199.676 186.714 199.032 186.714C198.304 186.714 197.73 186.929 197.31 187.358C196.89 187.778 196.68 188.385 196.68 189.178V193H195.336V185.58H196.624V186.7C196.894 186.317 197.258 186.023 197.716 185.818C198.182 185.613 198.71 185.51 199.298 185.51ZM212.004 185.58V191.992C212.004 193.289 211.682 194.246 211.038 194.862C210.394 195.487 209.433 195.8 208.154 195.8C207.454 195.8 206.787 195.702 206.152 195.506C205.517 195.319 205.004 195.049 204.612 194.694L205.256 193.658C205.601 193.957 206.026 194.19 206.53 194.358C207.043 194.535 207.571 194.624 208.112 194.624C208.98 194.624 209.619 194.419 210.03 194.008C210.45 193.597 210.66 192.972 210.66 192.132V191.544C210.343 191.927 209.951 192.216 209.484 192.412C209.027 192.599 208.527 192.692 207.986 192.692C207.277 192.692 206.633 192.543 206.054 192.244C205.485 191.936 205.037 191.511 204.71 190.97C204.383 190.419 204.22 189.794 204.22 189.094C204.22 188.394 204.383 187.773 204.71 187.232C205.037 186.681 205.485 186.257 206.054 185.958C206.633 185.659 207.277 185.51 207.986 185.51C208.546 185.51 209.064 185.613 209.54 185.818C210.025 186.023 210.422 186.327 210.73 186.728V185.58H212.004ZM208.14 191.516C208.625 191.516 209.059 191.413 209.442 191.208C209.834 191.003 210.137 190.718 210.352 190.354C210.576 189.981 210.688 189.561 210.688 189.094C210.688 188.375 210.45 187.797 209.974 187.358C209.498 186.91 208.887 186.686 208.14 186.686C207.384 186.686 206.768 186.91 206.292 187.358C205.816 187.797 205.578 188.375 205.578 189.094C205.578 189.561 205.685 189.981 205.9 190.354C206.124 190.718 206.427 191.003 206.81 191.208C207.202 191.413 207.645 191.516 208.14 191.516ZM222.504 192.566C222.308 192.734 222.065 192.865 221.776 192.958C221.486 193.042 221.188 193.084 220.88 193.084C220.133 193.084 219.554 192.883 219.144 192.482C218.733 192.081 218.528 191.507 218.528 190.76V186.686H217.268V185.58H218.528V183.956H219.872V185.58H222V186.686H219.872V190.704C219.872 191.105 219.97 191.413 220.166 191.628C220.371 191.843 220.66 191.95 221.034 191.95C221.444 191.95 221.794 191.833 222.084 191.6L222.504 192.566ZM228.09 185.51C229.033 185.51 229.78 185.785 230.33 186.336C230.89 186.877 231.17 187.675 231.17 188.73V193H229.826V188.884C229.826 188.165 229.654 187.624 229.308 187.26C228.963 186.896 228.468 186.714 227.824 186.714C227.096 186.714 226.522 186.929 226.102 187.358C225.682 187.778 225.472 188.385 225.472 189.178V193H224.128V182.612H225.472V186.63C225.752 186.275 226.116 186 226.564 185.804C227.022 185.608 227.53 185.51 228.09 185.51ZM240.405 189.332C240.405 189.435 240.395 189.57 240.377 189.738H234.357C234.441 190.391 234.725 190.919 235.211 191.32C235.705 191.712 236.317 191.908 237.045 191.908C237.931 191.908 238.645 191.609 239.187 191.012L239.929 191.88C239.593 192.272 239.173 192.571 238.669 192.776C238.174 192.981 237.619 193.084 237.003 193.084C236.219 193.084 235.523 192.925 234.917 192.608C234.31 192.281 233.839 191.829 233.503 191.25C233.176 190.671 233.013 190.018 233.013 189.29C233.013 188.571 233.171 187.923 233.489 187.344C233.815 186.765 234.259 186.317 234.819 186C235.388 185.673 236.027 185.51 236.737 185.51C237.446 185.51 238.076 185.673 238.627 186C239.187 186.317 239.621 186.765 239.929 187.344C240.246 187.923 240.405 188.585 240.405 189.332ZM236.737 186.644C236.093 186.644 235.551 186.84 235.113 187.232C234.683 187.624 234.431 188.137 234.357 188.772H239.117C239.042 188.147 238.785 187.638 238.347 187.246C237.917 186.845 237.381 186.644 236.737 186.644ZM253.129 185.58V191.992C253.129 193.289 252.807 194.246 252.163 194.862C251.519 195.487 250.558 195.8 249.279 195.8C248.579 195.8 247.912 195.702 247.277 195.506C246.642 195.319 246.129 195.049 245.737 194.694L246.381 193.658C246.726 193.957 247.151 194.19 247.655 194.358C248.168 194.535 248.696 194.624 249.237 194.624C250.105 194.624 250.744 194.419 251.155 194.008C251.575 193.597 251.785 192.972 251.785 192.132V191.544C251.468 191.927 251.076 192.216 250.609 192.412C250.152 192.599 249.652 192.692 249.111 192.692C248.402 192.692 247.758 192.543 247.179 192.244C246.61 191.936 246.162 191.511 245.835 190.97C245.508 190.419 245.345 189.794 245.345 189.094C245.345 188.394 245.508 187.773 245.835 187.232C246.162 186.681 246.61 186.257 247.179 185.958C247.758 185.659 248.402 185.51 249.111 185.51C249.671 185.51 250.189 185.613 250.665 185.818C251.15 186.023 251.547 186.327 251.855 186.728V185.58H253.129ZM249.265 191.516C249.75 191.516 250.184 191.413 250.567 191.208C250.959 191.003 251.262 190.718 251.477 190.354C251.701 189.981 251.813 189.561 251.813 189.094C251.813 188.375 251.575 187.797 251.099 187.358C250.623 186.91 250.012 186.686 249.265 186.686C248.509 186.686 247.893 186.91 247.417 187.358C246.941 187.797 246.703 188.375 246.703 189.094C246.703 189.561 246.81 189.981 247.025 190.354C247.249 190.718 247.552 191.003 247.935 191.208C248.327 191.413 248.77 191.516 249.265 191.516ZM258.399 185.51C259.426 185.51 260.21 185.762 260.751 186.266C261.302 186.77 261.577 187.521 261.577 188.52V193H260.303V192.02C260.079 192.365 259.757 192.631 259.337 192.818C258.926 192.995 258.436 193.084 257.867 193.084C257.036 193.084 256.369 192.883 255.865 192.482C255.37 192.081 255.123 191.553 255.123 190.9C255.123 190.247 255.361 189.724 255.837 189.332C256.313 188.931 257.069 188.73 258.105 188.73H260.233V188.464C260.233 187.885 260.065 187.442 259.729 187.134C259.393 186.826 258.898 186.672 258.245 186.672C257.806 186.672 257.377 186.747 256.957 186.896C256.537 187.036 256.182 187.227 255.893 187.47L255.333 186.462C255.716 186.154 256.173 185.921 256.705 185.762C257.237 185.594 257.802 185.51 258.399 185.51ZM258.091 192.048C258.604 192.048 259.048 191.936 259.421 191.712C259.794 191.479 260.065 191.152 260.233 190.732V189.696H258.161C257.022 189.696 256.453 190.079 256.453 190.844C256.453 191.217 256.598 191.511 256.887 191.726C257.176 191.941 257.578 192.048 258.091 192.048ZM273.346 185.51C274.279 185.51 275.017 185.781 275.558 186.322C276.109 186.863 276.384 187.666 276.384 188.73V193H275.04V188.884C275.04 188.165 274.872 187.624 274.536 187.26C274.209 186.896 273.738 186.714 273.122 186.714C272.441 186.714 271.899 186.929 271.498 187.358C271.097 187.778 270.896 188.385 270.896 189.178V193H269.552V188.884C269.552 188.165 269.384 187.624 269.048 187.26C268.721 186.896 268.25 186.714 267.634 186.714C266.953 186.714 266.411 186.929 266.01 187.358C265.609 187.778 265.408 188.385 265.408 189.178V193H264.064V185.58H265.352V186.686C265.623 186.303 265.977 186.014 266.416 185.818C266.855 185.613 267.354 185.51 267.914 185.51C268.493 185.51 269.006 185.627 269.454 185.86C269.902 186.093 270.247 186.434 270.49 186.882C270.77 186.453 271.157 186.117 271.652 185.874C272.156 185.631 272.721 185.51 273.346 185.51ZM285.604 189.332C285.604 189.435 285.595 189.57 285.576 189.738H279.556C279.64 190.391 279.925 190.919 280.41 191.32C280.905 191.712 281.516 191.908 282.244 191.908C283.131 191.908 283.845 191.609 284.386 191.012L285.128 191.88C284.792 192.272 284.372 192.571 283.868 192.776C283.373 192.981 282.818 193.084 282.202 193.084C281.418 193.084 280.723 192.925 280.116 192.608C279.509 192.281 279.038 191.829 278.702 191.25C278.375 190.671 278.212 190.018 278.212 189.29C278.212 188.571 278.371 187.923 278.688 187.344C279.015 186.765 279.458 186.317 280.018 186C280.587 185.673 281.227 185.51 281.936 185.51C282.645 185.51 283.275 185.673 283.826 186C284.386 186.317 284.82 186.765 285.128 187.344C285.445 187.923 285.604 188.585 285.604 189.332ZM281.936 186.644C281.292 186.644 280.751 186.84 280.312 187.232C279.883 187.624 279.631 188.137 279.556 188.772H284.316C284.241 188.147 283.985 187.638 283.546 187.246C283.117 186.845 282.58 186.644 281.936 186.644ZM287.806 191.166C288.068 191.166 288.282 191.259 288.45 191.446C288.628 191.623 288.716 191.847 288.716 192.118C288.716 192.258 288.698 192.393 288.66 192.524C288.632 192.655 288.572 192.855 288.478 193.126L287.82 195.072H286.938L287.456 192.986C287.279 192.921 287.134 192.813 287.022 192.664C286.92 192.505 286.868 192.323 286.868 192.118C286.868 191.838 286.957 191.609 287.134 191.432C287.312 191.255 287.536 191.166 287.806 191.166ZM300.968 185.58L297.37 193.742C297.053 194.498 296.679 195.03 296.25 195.338C295.83 195.646 295.321 195.8 294.724 195.8C294.36 195.8 294.005 195.739 293.66 195.618C293.324 195.506 293.044 195.338 292.82 195.114L293.394 194.106C293.777 194.47 294.22 194.652 294.724 194.652C295.051 194.652 295.321 194.563 295.536 194.386C295.76 194.218 295.961 193.924 296.138 193.504L296.376 192.986L293.1 185.58H294.5L297.09 191.516L299.652 185.58H300.968ZM305.195 193.084C304.458 193.084 303.795 192.921 303.207 192.594C302.619 192.267 302.157 191.819 301.821 191.25C301.494 190.671 301.331 190.018 301.331 189.29C301.331 188.562 301.494 187.913 301.821 187.344C302.157 186.765 302.619 186.317 303.207 186C303.795 185.673 304.458 185.51 305.195 185.51C305.932 185.51 306.59 185.673 307.169 186C307.757 186.317 308.214 186.765 308.541 187.344C308.877 187.913 309.045 188.562 309.045 189.29C309.045 190.018 308.877 190.671 308.541 191.25C308.214 191.819 307.757 192.267 307.169 192.594C306.59 192.921 305.932 193.084 305.195 193.084ZM305.195 191.908C305.671 191.908 306.096 191.801 306.469 191.586C306.852 191.362 307.15 191.054 307.365 190.662C307.58 190.261 307.687 189.803 307.687 189.29C307.687 188.777 307.58 188.324 307.365 187.932C307.15 187.531 306.852 187.223 306.469 187.008C306.096 186.793 305.671 186.686 305.195 186.686C304.719 186.686 304.29 186.793 303.907 187.008C303.534 187.223 303.235 187.531 303.011 187.932C302.796 188.324 302.689 188.777 302.689 189.29C302.689 189.803 302.796 190.261 303.011 190.662C303.235 191.054 303.534 191.362 303.907 191.586C304.29 191.801 304.719 191.908 305.195 191.908ZM317.82 185.58V193H316.546V191.88C316.275 192.263 315.916 192.561 315.468 192.776C315.029 192.981 314.549 193.084 314.026 193.084C313.037 193.084 312.257 192.813 311.688 192.272C311.119 191.721 310.834 190.914 310.834 189.85V185.58H312.178V189.696C312.178 190.415 312.351 190.961 312.696 191.334C313.041 191.698 313.536 191.88 314.18 191.88C314.889 191.88 315.449 191.665 315.86 191.236C316.271 190.807 316.476 190.2 316.476 189.416V185.58H317.82ZM34.1869 209.51C35.2136 209.51 35.9976 209.762 36.5389 210.266C37.0896 210.77 37.3649 211.521 37.3649 212.52V217H36.0909V216.02C35.8669 216.365 35.5449 216.631 35.1249 216.818C34.7143 216.995 34.2243 217.084 33.6549 217.084C32.8243 217.084 32.1569 216.883 31.6529 216.482C31.1583 216.081 30.9109 215.553 30.9109 214.9C30.9109 214.247 31.1489 213.724 31.6249 213.332C32.1009 212.931 32.8569 212.73 33.8929 212.73H36.0209V212.464C36.0209 211.885 35.8529 211.442 35.5169 211.134C35.1809 210.826 34.6863 210.672 34.0329 210.672C33.5943 210.672 33.1649 210.747 32.7449 210.896C32.3249 211.036 31.9703 211.227 31.6809 211.47L31.1209 210.462C31.5036 210.154 31.9609 209.921 32.4929 209.762C33.0249 209.594 33.5896 209.51 34.1869 209.51ZM33.8789 216.048C34.3923 216.048 34.8356 215.936 35.2089 215.712C35.5823 215.479 35.8529 215.152 36.0209 214.732V213.696H33.9489C32.8103 213.696 32.2409 214.079 32.2409 214.844C32.2409 215.217 32.3856 215.511 32.6749 215.726C32.9643 215.941 33.3656 216.048 33.8789 216.048ZM43.1271 217.084C42.3711 217.084 41.6945 216.921 41.0971 216.594C40.5091 216.267 40.0471 215.819 39.7111 215.25C39.3751 214.671 39.2071 214.018 39.2071 213.29C39.2071 212.562 39.3751 211.913 39.7111 211.344C40.0471 210.765 40.5091 210.317 41.0971 210C41.6945 209.673 42.3711 209.51 43.1271 209.51C43.7991 209.51 44.3965 209.645 44.9191 209.916C45.4511 210.187 45.8618 210.579 46.1511 211.092L45.1291 211.75C44.8958 211.395 44.6065 211.129 44.2611 210.952C43.9158 210.775 43.5331 210.686 43.1131 210.686C42.6278 210.686 42.1891 210.793 41.7971 211.008C41.4145 211.223 41.1111 211.531 40.8871 211.932C40.6725 212.324 40.5651 212.777 40.5651 213.29C40.5651 213.813 40.6725 214.275 40.8871 214.676C41.1111 215.068 41.4145 215.371 41.7971 215.586C42.1891 215.801 42.6278 215.908 43.1131 215.908C43.5331 215.908 43.9158 215.819 44.2611 215.642C44.6065 215.465 44.8958 215.199 45.1291 214.844L46.1511 215.488C45.8618 216.001 45.4511 216.398 44.9191 216.678C44.3965 216.949 43.7991 217.084 43.1271 217.084ZM51.0158 217.084C50.2598 217.084 49.5831 216.921 48.9858 216.594C48.3978 216.267 47.9358 215.819 47.5998 215.25C47.2638 214.671 47.0958 214.018 47.0958 213.29C47.0958 212.562 47.2638 211.913 47.5998 211.344C47.9358 210.765 48.3978 210.317 48.9858 210C49.5831 209.673 50.2598 209.51 51.0158 209.51C51.6878 209.51 52.2851 209.645 52.8078 209.916C53.3398 210.187 53.7505 210.579 54.0398 211.092L53.0178 211.75C52.7845 211.395 52.4951 211.129 52.1498 210.952C51.8045 210.775 51.4218 210.686 51.0018 210.686C50.5165 210.686 50.0778 210.793 49.6858 211.008C49.3031 211.223 48.9998 211.531 48.7758 211.932C48.5611 212.324 48.4538 212.777 48.4538 213.29C48.4538 213.813 48.5611 214.275 48.7758 214.676C48.9998 215.068 49.3031 215.371 49.6858 215.586C50.0778 215.801 50.5165 215.908 51.0018 215.908C51.4218 215.908 51.8045 215.819 52.1498 215.642C52.4951 215.465 52.7845 215.199 53.0178 214.844L54.0398 215.488C53.7505 216.001 53.3398 216.398 52.8078 216.678C52.2851 216.949 51.6878 217.084 51.0158 217.084ZM62.3765 213.332C62.3765 213.435 62.3672 213.57 62.3485 213.738H56.3285C56.4125 214.391 56.6972 214.919 57.1825 215.32C57.6772 215.712 58.2885 215.908 59.0165 215.908C59.9032 215.908 60.6172 215.609 61.1585 215.012L61.9005 215.88C61.5645 216.272 61.1445 216.571 60.6405 216.776C60.1458 216.981 59.5905 217.084 58.9745 217.084C58.1905 217.084 57.4952 216.925 56.8885 216.608C56.2818 216.281 55.8105 215.829 55.4745 215.25C55.1478 214.671 54.9845 214.018 54.9845 213.29C54.9845 212.571 55.1432 211.923 55.4605 211.344C55.7872 210.765 56.2305 210.317 56.7905 210C57.3598 209.673 57.9992 209.51 58.7085 209.51C59.4178 209.51 60.0478 209.673 60.5985 210C61.1585 210.317 61.5925 210.765 61.9005 211.344C62.2178 211.923 62.3765 212.585 62.3765 213.332ZM58.7085 210.644C58.0645 210.644 57.5232 210.84 57.0845 211.232C56.6552 211.624 56.4032 212.137 56.3285 212.772H61.0885C61.0138 212.147 60.7572 211.638 60.3185 211.246C59.8892 210.845 59.3525 210.644 58.7085 210.644ZM68.1768 209.51C68.8954 209.51 69.5394 209.669 70.1088 209.986C70.6781 210.303 71.1214 210.747 71.4388 211.316C71.7654 211.885 71.9288 212.543 71.9288 213.29C71.9288 214.037 71.7654 214.699 71.4388 215.278C71.1214 215.847 70.6781 216.291 70.1088 216.608C69.5394 216.925 68.8954 217.084 68.1768 217.084C67.6448 217.084 67.1548 216.981 66.7068 216.776C66.2681 216.571 65.8948 216.272 65.5868 215.88V219.716H64.2428V209.58H65.5308V210.756C65.8294 210.345 66.2074 210.037 66.6647 209.832C67.1221 209.617 67.6261 209.51 68.1768 209.51ZM68.0648 215.908C68.5408 215.908 68.9654 215.801 69.3388 215.586C69.7214 215.362 70.0201 215.054 70.2348 214.662C70.4588 214.261 70.5708 213.803 70.5708 213.29C70.5708 212.777 70.4588 212.324 70.2348 211.932C70.0201 211.531 69.7214 211.223 69.3388 211.008C68.9654 210.793 68.5408 210.686 68.0648 210.686C67.5981 210.686 67.1734 210.798 66.7908 211.022C66.4174 211.237 66.1188 211.54 65.8948 211.932C65.6801 212.324 65.5728 212.777 65.5728 213.29C65.5728 213.803 65.6801 214.261 65.8948 214.662C66.1094 215.054 66.4081 215.362 66.7908 215.586C67.1734 215.801 67.5981 215.908 68.0648 215.908ZM77.9577 216.566C77.7617 216.734 77.5191 216.865 77.2297 216.958C76.9404 217.042 76.6417 217.084 76.3337 217.084C75.5871 217.084 75.0084 216.883 74.5977 216.482C74.1871 216.081 73.9817 215.507 73.9817 214.76V210.686H72.7217V209.58H73.9817V207.956H75.3257V209.58H77.4537V210.686H75.3257V214.704C75.3257 215.105 75.4237 215.413 75.6197 215.628C75.8251 215.843 76.1144 215.95 76.4877 215.95C76.8984 215.95 77.2484 215.833 77.5377 215.6L77.9577 216.566ZM87.5144 216.566C87.3184 216.734 87.0757 216.865 86.7864 216.958C86.497 217.042 86.1984 217.084 85.8904 217.084C85.1437 217.084 84.565 216.883 84.1544 216.482C83.7437 216.081 83.5384 215.507 83.5384 214.76V210.686H82.2784V209.58H83.5384V207.956H84.8824V209.58H87.0104V210.686H84.8824V214.704C84.8824 215.105 84.9804 215.413 85.1764 215.628C85.3817 215.843 85.671 215.95 86.0444 215.95C86.455 215.95 86.805 215.833 87.0944 215.6L87.5144 216.566ZM92.0711 217.084C91.3338 217.084 90.6711 216.921 90.0831 216.594C89.4951 216.267 89.0331 215.819 88.6971 215.25C88.3705 214.671 88.2071 214.018 88.2071 213.29C88.2071 212.562 88.3705 211.913 88.6971 211.344C89.0331 210.765 89.4951 210.317 90.0831 210C90.6711 209.673 91.3338 209.51 92.0711 209.51C92.8085 209.51 93.4665 209.673 94.0451 210C94.6331 210.317 95.0905 210.765 95.4171 211.344C95.7531 211.913 95.9211 212.562 95.9211 213.29C95.9211 214.018 95.7531 214.671 95.4171 215.25C95.0905 215.819 94.6331 216.267 94.0451 216.594C93.4665 216.921 92.8085 217.084 92.0711 217.084ZM92.0711 215.908C92.5471 215.908 92.9718 215.801 93.3451 215.586C93.7278 215.362 94.0265 215.054 94.2411 214.662C94.4558 214.261 94.5631 213.803 94.5631 213.29C94.5631 212.777 94.4558 212.324 94.2411 211.932C94.0265 211.531 93.7278 211.223 93.3451 211.008C92.9718 210.793 92.5471 210.686 92.0711 210.686C91.5951 210.686 91.1658 210.793 90.7831 211.008C90.4098 211.223 90.1111 211.531 89.8871 211.932C89.6725 212.324 89.5651 212.777 89.5651 213.29C89.5651 213.803 89.6725 214.261 89.8871 214.662C90.1111 215.054 90.4098 215.362 90.7831 215.586C91.1658 215.801 91.5951 215.908 92.0711 215.908ZM101.54 206.612H102.884V217H101.54V206.612ZM108.628 217.084C107.89 217.084 107.228 216.921 106.64 216.594C106.052 216.267 105.59 215.819 105.254 215.25C104.927 214.671 104.764 214.018 104.764 213.29C104.764 212.562 104.927 211.913 105.254 211.344C105.59 210.765 106.052 210.317 106.64 210C107.228 209.673 107.89 209.51 108.628 209.51C109.365 209.51 110.023 209.673 110.602 210C111.19 210.317 111.647 210.765 111.974 211.344C112.31 211.913 112.478 212.562 112.478 213.29C112.478 214.018 112.31 214.671 111.974 215.25C111.647 215.819 111.19 216.267 110.602 216.594C110.023 216.921 109.365 217.084 108.628 217.084ZM108.628 215.908C109.104 215.908 109.528 215.801 109.902 215.586C110.284 215.362 110.583 215.054 110.798 214.662C111.012 214.261 111.12 213.803 111.12 213.29C111.12 212.777 111.012 212.324 110.798 211.932C110.583 211.531 110.284 211.223 109.902 211.008C109.528 210.793 109.104 210.686 108.628 210.686C108.152 210.686 107.722 210.793 107.34 211.008C106.966 211.223 106.668 211.531 106.444 211.932C106.229 212.324 106.122 212.777 106.122 213.29C106.122 213.803 106.229 214.261 106.444 214.662C106.668 215.054 106.966 215.362 107.34 215.586C107.722 215.801 108.152 215.908 108.628 215.908ZM116.465 217.084C115.858 217.084 115.275 217.005 114.715 216.846C114.155 216.678 113.716 216.468 113.399 216.216L113.959 215.152C114.285 215.385 114.682 215.572 115.149 215.712C115.615 215.852 116.087 215.922 116.562 215.922C117.739 215.922 118.327 215.586 118.327 214.914C118.327 214.69 118.247 214.513 118.089 214.382C117.93 214.251 117.729 214.158 117.487 214.102C117.253 214.037 116.917 213.967 116.479 213.892C115.881 213.799 115.391 213.691 115.009 213.57C114.635 213.449 114.313 213.243 114.043 212.954C113.772 212.665 113.637 212.259 113.637 211.736C113.637 211.064 113.917 210.527 114.477 210.126C115.037 209.715 115.788 209.51 116.731 209.51C117.225 209.51 117.72 209.571 118.215 209.692C118.709 209.813 119.115 209.977 119.433 210.182L118.859 211.246C118.252 210.854 117.538 210.658 116.717 210.658C116.147 210.658 115.713 210.751 115.415 210.938C115.116 211.125 114.967 211.372 114.967 211.68C114.967 211.923 115.051 212.114 115.219 212.254C115.387 212.394 115.592 212.497 115.835 212.562C116.087 212.627 116.437 212.702 116.885 212.786C117.482 212.889 117.963 213.001 118.327 213.122C118.7 213.234 119.017 213.43 119.279 213.71C119.54 213.99 119.671 214.382 119.671 214.886C119.671 215.558 119.381 216.095 118.803 216.496C118.233 216.888 117.454 217.084 116.465 217.084ZM128.056 213.332C128.056 213.435 128.047 213.57 128.028 213.738H122.008C122.092 214.391 122.377 214.919 122.862 215.32C123.357 215.712 123.968 215.908 124.696 215.908C125.583 215.908 126.297 215.609 126.838 215.012L127.58 215.88C127.244 216.272 126.824 216.571 126.32 216.776C125.826 216.981 125.27 217.084 124.654 217.084C123.87 217.084 123.175 216.925 122.568 216.608C121.962 216.281 121.49 215.829 121.154 215.25C120.828 214.671 120.664 214.018 120.664 213.29C120.664 212.571 120.823 211.923 121.14 211.344C121.467 210.765 121.91 210.317 122.47 210C123.04 209.673 123.679 209.51 124.388 209.51C125.098 209.51 125.728 209.673 126.278 210C126.838 210.317 127.272 210.765 127.58 211.344C127.898 211.923 128.056 212.585 128.056 213.332ZM124.388 210.644C123.744 210.644 123.203 210.84 122.764 211.232C122.335 211.624 122.083 212.137 122.008 212.772H126.768C126.694 212.147 126.437 211.638 125.998 211.246C125.569 210.845 125.032 210.644 124.388 210.644ZM133.682 209.58H135.026V217H133.682V209.58ZM134.354 208.152C134.093 208.152 133.874 208.068 133.696 207.9C133.528 207.732 133.444 207.527 133.444 207.284C133.444 207.041 133.528 206.836 133.696 206.668C133.874 206.491 134.093 206.402 134.354 206.402C134.616 206.402 134.83 206.486 134.998 206.654C135.176 206.813 135.264 207.013 135.264 207.256C135.264 207.508 135.176 207.723 134.998 207.9C134.83 208.068 134.616 208.152 134.354 208.152ZM141.764 216.566C141.568 216.734 141.326 216.865 141.036 216.958C140.747 217.042 140.448 217.084 140.14 217.084C139.394 217.084 138.815 216.883 138.404 216.482C137.994 216.081 137.788 215.507 137.788 214.76V210.686H136.528V209.58H137.788V207.956H139.132V209.58H141.26V210.686H139.132V214.704C139.132 215.105 139.23 215.413 139.426 215.628C139.632 215.843 139.921 215.95 140.294 215.95C140.705 215.95 141.055 215.833 141.344 215.6L141.764 216.566ZM149.851 209.51C150.878 209.51 151.662 209.762 152.203 210.266C152.754 210.77 153.029 211.521 153.029 212.52V217H151.755V216.02C151.531 216.365 151.209 216.631 150.789 216.818C150.378 216.995 149.888 217.084 149.319 217.084C148.488 217.084 147.821 216.883 147.317 216.482C146.822 216.081 146.575 215.553 146.575 214.9C146.575 214.247 146.813 213.724 147.289 213.332C147.765 212.931 148.521 212.73 149.557 212.73H151.685V212.464C151.685 211.885 151.517 211.442 151.181 211.134C150.845 210.826 150.35 210.672 149.697 210.672C149.258 210.672 148.829 210.747 148.409 210.896C147.989 211.036 147.634 211.227 147.345 211.47L146.785 210.462C147.168 210.154 147.625 209.921 148.157 209.762C148.689 209.594 149.254 209.51 149.851 209.51ZM149.543 216.048C150.056 216.048 150.5 215.936 150.873 215.712C151.246 215.479 151.517 215.152 151.685 214.732V213.696H149.613C148.474 213.696 147.905 214.079 147.905 214.844C147.905 215.217 148.05 215.511 148.339 215.726C148.628 215.941 149.03 216.048 149.543 216.048ZM159.478 209.51C160.421 209.51 161.168 209.785 161.718 210.336C162.278 210.877 162.558 211.675 162.558 212.73V217H161.214V212.884C161.214 212.165 161.042 211.624 160.696 211.26C160.351 210.896 159.856 210.714 159.212 210.714C158.484 210.714 157.91 210.929 157.49 211.358C157.07 211.778 156.86 212.385 156.86 213.178V217H155.516V209.58H156.804V210.7C157.075 210.317 157.439 210.023 157.896 209.818C158.363 209.613 158.89 209.51 159.478 209.51ZM172.087 206.612V217H170.799V215.824C170.5 216.235 170.122 216.547 169.665 216.762C169.207 216.977 168.703 217.084 168.153 217.084C167.434 217.084 166.79 216.925 166.221 216.608C165.651 216.291 165.203 215.847 164.877 215.278C164.559 214.699 164.401 214.037 164.401 213.29C164.401 212.543 164.559 211.885 164.877 211.316C165.203 210.747 165.651 210.303 166.221 209.986C166.79 209.669 167.434 209.51 168.153 209.51C168.685 209.51 169.175 209.613 169.623 209.818C170.071 210.014 170.444 210.308 170.743 210.7V206.612H172.087ZM168.265 215.908C168.731 215.908 169.156 215.801 169.539 215.586C169.921 215.362 170.22 215.054 170.435 214.662C170.649 214.261 170.757 213.803 170.757 213.29C170.757 212.777 170.649 212.324 170.435 211.932C170.22 211.531 169.921 211.223 169.539 211.008C169.156 210.793 168.731 210.686 168.265 210.686C167.789 210.686 167.359 210.793 166.977 211.008C166.603 211.223 166.305 211.531 166.081 211.932C165.866 212.324 165.759 212.777 165.759 213.29C165.759 213.803 165.866 214.261 166.081 214.662C166.305 215.054 166.603 215.362 166.977 215.586C167.359 215.801 167.789 215.908 168.265 215.908ZM178.389 206.612H179.733V217H178.389V206.612ZM185.477 217.084C184.74 217.084 184.077 216.921 183.489 216.594C182.901 216.267 182.439 215.819 182.103 215.25C181.777 214.671 181.613 214.018 181.613 213.29C181.613 212.562 181.777 211.913 182.103 211.344C182.439 210.765 182.901 210.317 183.489 210C184.077 209.673 184.74 209.51 185.477 209.51C186.215 209.51 186.873 209.673 187.451 210C188.039 210.317 188.497 210.765 188.823 211.344C189.159 211.913 189.327 212.562 189.327 213.29C189.327 214.018 189.159 214.671 188.823 215.25C188.497 215.819 188.039 216.267 187.451 216.594C186.873 216.921 186.215 217.084 185.477 217.084ZM185.477 215.908C185.953 215.908 186.378 215.801 186.751 215.586C187.134 215.362 187.433 215.054 187.647 214.662C187.862 214.261 187.969 213.803 187.969 213.29C187.969 212.777 187.862 212.324 187.647 211.932C187.433 211.531 187.134 211.223 186.751 211.008C186.378 210.793 185.953 210.686 185.477 210.686C185.001 210.686 184.572 210.793 184.189 211.008C183.816 211.223 183.517 211.531 183.293 211.932C183.079 212.324 182.971 212.777 182.971 213.29C182.971 213.803 183.079 214.261 183.293 214.662C183.517 215.054 183.816 215.362 184.189 215.586C184.572 215.801 185.001 215.908 185.477 215.908ZM193.314 217.084C192.707 217.084 192.124 217.005 191.564 216.846C191.004 216.678 190.565 216.468 190.248 216.216L190.808 215.152C191.135 215.385 191.531 215.572 191.998 215.712C192.465 215.852 192.936 215.922 193.412 215.922C194.588 215.922 195.176 215.586 195.176 214.914C195.176 214.69 195.097 214.513 194.938 214.382C194.779 214.251 194.579 214.158 194.336 214.102C194.103 214.037 193.767 213.967 193.328 213.892C192.731 213.799 192.241 213.691 191.858 213.57C191.485 213.449 191.163 213.243 190.892 212.954C190.621 212.665 190.486 212.259 190.486 211.736C190.486 211.064 190.766 210.527 191.326 210.126C191.886 209.715 192.637 209.51 193.58 209.51C194.075 209.51 194.569 209.571 195.064 209.692C195.559 209.813 195.965 209.977 196.282 210.182L195.708 211.246C195.101 210.854 194.387 210.658 193.566 210.658C192.997 210.658 192.563 210.751 192.264 210.938C191.965 211.125 191.816 211.372 191.816 211.68C191.816 211.923 191.9 212.114 192.068 212.254C192.236 212.394 192.441 212.497 192.684 212.562C192.936 212.627 193.286 212.702 193.734 212.786C194.331 212.889 194.812 213.001 195.176 213.122C195.549 213.234 195.867 213.43 196.128 213.71C196.389 213.99 196.52 214.382 196.52 214.886C196.52 215.558 196.231 216.095 195.652 216.496C195.083 216.888 194.303 217.084 193.314 217.084ZM204.906 213.332C204.906 213.435 204.896 213.57 204.878 213.738H198.858C198.942 214.391 199.226 214.919 199.712 215.32C200.206 215.712 200.818 215.908 201.546 215.908C202.432 215.908 203.146 215.609 203.688 215.012L204.43 215.88C204.094 216.272 203.674 216.571 203.17 216.776C202.675 216.981 202.12 217.084 201.504 217.084C200.72 217.084 200.024 216.925 199.418 216.608C198.811 216.281 198.34 215.829 198.004 215.25C197.677 214.671 197.514 214.018 197.514 213.29C197.514 212.571 197.672 211.923 197.99 211.344C198.316 210.765 198.76 210.317 199.32 210C199.889 209.673 200.528 209.51 201.238 209.51C201.947 209.51 202.577 209.673 203.128 210C203.688 210.317 204.122 210.765 204.43 211.344C204.747 211.923 204.906 212.585 204.906 213.332ZM201.238 210.644C200.594 210.644 200.052 210.84 199.614 211.232C199.184 211.624 198.932 212.137 198.858 212.772H203.618C203.543 212.147 203.286 211.638 202.848 211.246C202.418 210.845 201.882 210.644 201.238 210.644ZM214.704 216.566C214.508 216.734 214.265 216.865 213.976 216.958C213.686 217.042 213.388 217.084 213.08 217.084C212.333 217.084 211.754 216.883 211.344 216.482C210.933 216.081 210.728 215.507 210.728 214.76V210.686H209.468V209.58H210.728V207.956H212.072V209.58H214.2V210.686H212.072V214.704C212.072 215.105 212.17 215.413 212.366 215.628C212.571 215.843 212.86 215.95 213.234 215.95C213.644 215.95 213.994 215.833 214.284 215.6L214.704 216.566ZM220.291 209.51C221.233 209.51 221.98 209.785 222.531 210.336C223.091 210.877 223.371 211.675 223.371 212.73V217H222.027V212.884C222.027 212.165 221.854 211.624 221.509 211.26C221.163 210.896 220.669 210.714 220.025 210.714C219.297 210.714 218.723 210.929 218.303 211.358C217.883 211.778 217.673 212.385 217.673 213.178V217H216.329V206.612H217.673V210.63C217.953 210.275 218.317 210 218.765 209.804C219.222 209.608 219.731 209.51 220.291 209.51ZM232.605 213.332C232.605 213.435 232.596 213.57 232.577 213.738H226.557C226.641 214.391 226.926 214.919 227.411 215.32C227.906 215.712 228.517 215.908 229.245 215.908C230.132 215.908 230.846 215.609 231.387 215.012L232.129 215.88C231.793 216.272 231.373 216.571 230.869 216.776C230.374 216.981 229.819 217.084 229.203 217.084C228.419 217.084 227.724 216.925 227.117 216.608C226.51 216.281 226.039 215.829 225.703 215.25C225.376 214.671 225.213 214.018 225.213 213.29C225.213 212.571 225.372 211.923 225.689 211.344C226.016 210.765 226.459 210.317 227.019 210C227.588 209.673 228.228 209.51 228.937 209.51C229.646 209.51 230.276 209.673 230.827 210C231.387 210.317 231.821 210.765 232.129 211.344C232.446 211.923 232.605 212.585 232.605 213.332ZM228.937 210.644C228.293 210.644 227.752 210.84 227.313 211.232C226.884 211.624 226.632 212.137 226.557 212.772H231.317C231.242 212.147 230.986 211.638 230.547 211.246C230.118 210.845 229.581 210.644 228.937 210.644ZM244.937 213.332C244.937 213.435 244.928 213.57 244.909 213.738H238.889C238.973 214.391 239.258 214.919 239.743 215.32C240.238 215.712 240.849 215.908 241.577 215.908C242.464 215.908 243.178 215.609 243.719 215.012L244.461 215.88C244.125 216.272 243.705 216.571 243.201 216.776C242.706 216.981 242.151 217.084 241.535 217.084C240.751 217.084 240.056 216.925 239.449 216.608C238.842 216.281 238.371 215.829 238.035 215.25C237.708 214.671 237.545 214.018 237.545 213.29C237.545 212.571 237.704 211.923 238.021 211.344C238.348 210.765 238.791 210.317 239.351 210C239.92 209.673 240.56 209.51 241.269 209.51C241.978 209.51 242.608 209.673 243.159 210C243.719 210.317 244.153 210.765 244.461 211.344C244.778 211.923 244.937 212.585 244.937 213.332ZM241.269 210.644C240.625 210.644 240.084 210.84 239.645 211.232C239.216 211.624 238.964 212.137 238.889 212.772H243.649C243.574 212.147 243.318 211.638 242.879 211.246C242.45 210.845 241.913 210.644 241.269 210.644ZM250.765 209.51C251.708 209.51 252.455 209.785 253.005 210.336C253.565 210.877 253.845 211.675 253.845 212.73V217H252.501V212.884C252.501 212.165 252.329 211.624 251.983 211.26C251.638 210.896 251.143 210.714 250.499 210.714C249.771 210.714 249.197 210.929 248.777 211.358C248.357 211.778 248.147 212.385 248.147 213.178V217H246.803V209.58H248.091V210.7C248.362 210.317 248.726 210.023 249.183 209.818C249.65 209.613 250.177 209.51 250.765 209.51ZM260.505 216.566C260.309 216.734 260.066 216.865 259.777 216.958C259.487 217.042 259.189 217.084 258.881 217.084C258.134 217.084 257.555 216.883 257.145 216.482C256.734 216.081 256.529 215.507 256.529 214.76V210.686H255.269V209.58H256.529V207.956H257.873V209.58H260.001V210.686H257.873V214.704C257.873 215.105 257.971 215.413 258.167 215.628C258.372 215.843 258.661 215.95 259.035 215.95C259.445 215.95 259.795 215.833 260.085 215.6L260.505 216.566ZM263.417 210.826C263.651 210.397 263.996 210.07 264.453 209.846C264.911 209.622 265.466 209.51 266.119 209.51V210.812C266.045 210.803 265.942 210.798 265.811 210.798C265.083 210.798 264.509 211.017 264.089 211.456C263.679 211.885 263.473 212.501 263.473 213.304V217H262.129V209.58H263.417V210.826ZM270.464 209.51C271.491 209.51 272.275 209.762 272.816 210.266C273.367 210.77 273.642 211.521 273.642 212.52V217H272.368V216.02C272.144 216.365 271.822 216.631 271.402 216.818C270.992 216.995 270.502 217.084 269.932 217.084C269.102 217.084 268.434 216.883 267.93 216.482C267.436 216.081 267.188 215.553 267.188 214.9C267.188 214.247 267.426 213.724 267.902 213.332C268.378 212.931 269.134 212.73 270.17 212.73H272.298V212.464C272.298 211.885 272.13 211.442 271.794 211.134C271.458 210.826 270.964 210.672 270.31 210.672C269.872 210.672 269.442 210.747 269.022 210.896C268.602 211.036 268.248 211.227 267.958 211.47L267.398 210.462C267.781 210.154 268.238 209.921 268.77 209.762C269.302 209.594 269.867 209.51 270.464 209.51ZM270.156 216.048C270.67 216.048 271.113 215.936 271.486 215.712C271.86 215.479 272.13 215.152 272.298 214.732V213.696H270.226C269.088 213.696 268.518 214.079 268.518 214.844C268.518 215.217 268.663 215.511 268.952 215.726C269.242 215.941 269.643 216.048 270.156 216.048ZM280.091 209.51C281.034 209.51 281.781 209.785 282.331 210.336C282.891 210.877 283.171 211.675 283.171 212.73V217H281.827V212.884C281.827 212.165 281.655 211.624 281.309 211.26C280.964 210.896 280.469 210.714 279.825 210.714C279.097 210.714 278.523 210.929 278.103 211.358C277.683 211.778 277.473 212.385 277.473 213.178V217H276.129V209.58H277.417V210.7C277.688 210.317 278.052 210.023 278.509 209.818C278.976 209.613 279.503 209.51 280.091 209.51ZM288.934 217.084C288.178 217.084 287.501 216.921 286.904 216.594C286.316 216.267 285.854 215.819 285.518 215.25C285.182 214.671 285.014 214.018 285.014 213.29C285.014 212.562 285.182 211.913 285.518 211.344C285.854 210.765 286.316 210.317 286.904 210C287.501 209.673 288.178 209.51 288.934 209.51C289.606 209.51 290.203 209.645 290.726 209.916C291.258 210.187 291.668 210.579 291.958 211.092L290.936 211.75C290.702 211.395 290.413 211.129 290.068 210.952C289.722 210.775 289.34 210.686 288.92 210.686C288.434 210.686 287.996 210.793 287.604 211.008C287.221 211.223 286.918 211.531 286.694 211.932C286.479 212.324 286.372 212.777 286.372 213.29C286.372 213.813 286.479 214.275 286.694 214.676C286.918 215.068 287.221 215.371 287.604 215.586C287.996 215.801 288.434 215.908 288.92 215.908C289.34 215.908 289.722 215.819 290.068 215.642C290.413 215.465 290.702 215.199 290.936 214.844L291.958 215.488C291.668 216.001 291.258 216.398 290.726 216.678C290.203 216.949 289.606 217.084 288.934 217.084ZM300.294 213.332C300.294 213.435 300.285 213.57 300.266 213.738H294.246C294.33 214.391 294.615 214.919 295.1 215.32C295.595 215.712 296.206 215.908 296.934 215.908C297.821 215.908 298.535 215.609 299.076 215.012L299.818 215.88C299.482 216.272 299.062 216.571 298.558 216.776C298.064 216.981 297.508 217.084 296.892 217.084C296.108 217.084 295.413 216.925 294.806 216.608C294.2 216.281 293.728 215.829 293.392 215.25C293.066 214.671 292.902 214.018 292.902 213.29C292.902 212.571 293.061 211.923 293.378 211.344C293.705 210.765 294.148 210.317 294.708 210C295.278 209.673 295.917 209.51 296.626 209.51C297.336 209.51 297.966 209.673 298.516 210C299.076 210.317 299.51 210.765 299.818 211.344C300.136 211.923 300.294 212.585 300.294 213.332ZM296.626 210.644C295.982 210.644 295.441 210.84 295.002 211.232C294.573 211.624 294.321 212.137 294.246 212.772H299.006C298.932 212.147 298.675 211.638 298.236 211.246C297.807 210.845 297.27 210.644 296.626 210.644ZM308.636 207.634C307.834 207.634 307.432 208.068 307.432 208.936V209.58H309.588V210.686H307.46V217H306.116V210.686H304.856V209.58H306.116V208.922C306.116 208.185 306.331 207.601 306.76 207.172C307.19 206.743 307.792 206.528 308.566 206.528C308.865 206.528 309.145 206.565 309.406 206.64C309.668 206.715 309.892 206.822 310.078 206.962L309.672 207.984C309.364 207.751 309.019 207.634 308.636 207.634ZM317.453 213.332C317.453 213.435 317.443 213.57 317.425 213.738H311.405C311.489 214.391 311.773 214.919 312.259 215.32C312.753 215.712 313.365 215.908 314.093 215.908C314.979 215.908 315.693 215.609 316.235 215.012L316.977 215.88C316.641 216.272 316.221 216.571 315.717 216.776C315.222 216.981 314.667 217.084 314.051 217.084C313.267 217.084 312.571 216.925 311.965 216.608C311.358 216.281 310.887 215.829 310.551 215.25C310.224 214.671 310.061 214.018 310.061 213.29C310.061 212.571 310.219 211.923 310.537 211.344C310.863 210.765 311.307 210.317 311.867 210C312.436 209.673 313.075 209.51 313.785 209.51C314.494 209.51 315.124 209.673 315.675 210C316.235 210.317 316.669 210.765 316.977 211.344C317.294 211.923 317.453 212.585 317.453 213.332ZM313.785 210.644C313.141 210.644 312.599 210.84 312.161 211.232C311.731 211.624 311.479 212.137 311.405 212.772H316.165C316.09 212.147 315.833 211.638 315.395 211.246C314.965 210.845 314.429 210.644 313.785 210.644ZM326.025 213.332C326.025 213.435 326.016 213.57 325.997 213.738H319.977C320.061 214.391 320.346 214.919 320.831 215.32C321.326 215.712 321.937 215.908 322.665 215.908C323.552 215.908 324.266 215.609 324.807 215.012L325.549 215.88C325.213 216.272 324.793 216.571 324.289 216.776C323.794 216.981 323.239 217.084 322.623 217.084C321.839 217.084 321.144 216.925 320.537 216.608C319.93 216.281 319.459 215.829 319.123 215.25C318.796 214.671 318.633 214.018 318.633 213.29C318.633 212.571 318.792 211.923 319.109 211.344C319.436 210.765 319.879 210.317 320.439 210C321.008 209.673 321.648 209.51 322.357 209.51C323.066 209.51 323.696 209.673 324.247 210C324.807 210.317 325.241 210.765 325.549 211.344C325.866 211.923 326.025 212.585 326.025 213.332ZM322.357 210.644C321.713 210.644 321.172 210.84 320.733 211.232C320.304 211.624 320.052 212.137 319.977 212.772H324.737C324.662 212.147 324.406 211.638 323.967 211.246C323.538 210.845 323.001 210.644 322.357 210.644ZM328.213 217.084C327.952 217.084 327.728 216.995 327.541 216.818C327.355 216.631 327.261 216.398 327.261 216.118C327.261 215.847 327.355 215.623 327.541 215.446C327.728 215.259 327.952 215.166 328.213 215.166C328.475 215.166 328.694 215.255 328.871 215.432C329.049 215.609 329.137 215.838 329.137 216.118C329.137 216.398 329.044 216.631 328.857 216.818C328.68 216.995 328.465 217.084 328.213 217.084Z" fill="#6D7073"/>
</svg>
